<?xml version="1.0" encoding="UTF-8"?>
<svg version="1.1" xmlns="http://www.w3.org/2000/svg" width="1440" height="508">
<path d="M0 0 C16.30956061 -0.51456776 36.55900229 2.48493111 49.125 13.625 C51.28529133 16.0858536 51.48006486 18.25832035 51.72265625 21.47265625 C51.39157119 26.35616087 50.13692418 29.60326045 46.53515625 32.97265625 C38.60452184 37.53877909 27.54549344 34.4879406 19.16015625 32.59765625 C2.95070478 29.19754286 -12.2126793 30.42083517 -26.43359375 39.5859375 C-30.82144323 42.8850109 -34.08063016 46.76786015 -35.52734375 52.16015625 C-35.92310832 55.91991965 -36.15111869 58.18381286 -34.08984375 61.41015625 C-25.38451256 67.35526048 -13.92662587 67.70910838 -3.70703125 68.5859375 C14.21711473 70.13451197 33.69621992 73.05669876 46.47265625 87.16015625 C57.47164585 100.56386791 61.55326519 113.09359132 60.0078125 130.484375 C57.79299797 145.69707915 50.02810797 158.03229528 37.89306641 167.37646484 C25.37357717 176.48929034 11.73625034 181.60669606 -3.52734375 184.16015625 C-4.30207031 184.29164063 -5.07679688 184.423125 -5.875 184.55859375 C-27.97541063 187.61547298 -52.58302348 183.74478094 -71.19140625 171.00390625 C-78.36567789 165.34127044 -83.7491132 158.37797764 -84.90625 149.1328125 C-85.14109359 143.00415231 -84.85955848 138.85338888 -80.52734375 134.16015625 C-76.22311785 130.41456393 -72.10764264 130.04482416 -66.52734375 130.16015625 C-59.85641278 132.12219477 -55.95248659 137.98218471 -51.87890625 143.3203125 C-46.39641139 150.20560534 -40.05649638 152.64001576 -31.52734375 154.16015625 C-13.46700983 155.52096919 3.1480747 153.63089385 18.47265625 143.16015625 C23.82214127 138.36658024 26.55405588 133.83455774 28.28515625 126.91015625 C28.5756589 121.10010315 27.00123088 116.48734789 23.8203125 111.64453125 C20.88894186 108.54244851 17.90794166 106.88171411 14.09765625 105.03515625 C13.38432129 104.6882373 12.67098633 104.34131836 11.93603516 103.98388672 C0.80015042 98.78087281 -10.47156874 97.92264312 -22.55078125 96.91943359 C-37.96006397 95.58819535 -53.06059308 91.33925876 -63.52734375 79.16015625 C-69.7221248 69.16234415 -71.31016202 58.46299561 -68.84375 46.9765625 C-62.6055606 28.72791717 -47.59434671 17.03198634 -31.1328125 8.375 C-21.0787516 3.52090417 -11.13647675 0.70571182 0 0 Z " fill="#FFFFFF" transform="translate(240.52734375,164.83984375)"/>
<path d="M0 0 C4.15403932 4.67329423 4.33735306 9.44184158 4.28125 15.4765625 C4.27685913 16.33391998 4.27246826 17.19127747 4.26794434 18.07461548 C4.09312111 30.00836321 2.99507568 41.90537648 2.04219151 53.79665565 C-0.98241627 91.60018229 -3.31382985 129.44247983 1 167.25 C1.29523521 169.95731885 1.56188405 172.66277847 1.8125 175.375 C1.97685547 176.89480469 1.97685547 176.89480469 2.14453125 178.4453125 C1.90763009 183.04247556 -0.05912364 186.22610514 -3.125 189.5625 C-7.0306504 191.85494697 -10.4884494 192.46483574 -15 192.25 C-18.65202958 190.89739645 -21.5749926 189.34862057 -24 186.25 C-24 185.59 -24 184.93 -24 184.25 C-24.90878906 184.72050781 -25.81757812 185.19101562 -26.75390625 185.67578125 C-43.72149716 194.18920844 -61.59794296 197.13985616 -80.0390625 191.28515625 C-95.17462859 185.47732275 -106.95974876 174.93554215 -113.78515625 160.20703125 C-121.70862573 140.92064412 -120.72227738 118.84215072 -113.75 99.375 C-106.81071235 82.84013951 -95.52765263 71.17943582 -79.125 64 C-65.22253192 58.78657447 -50.101751 58.87948153 -36 63.25 C-33.04111056 64.70775198 -30.66353024 66.27898762 -28 68.25 C-28.01015137 67.51386475 -28.02030273 66.77772949 -28.03076172 66.01928711 C-28.09601746 57.34759768 -27.75719444 48.73790491 -27.25537109 40.0847168 C-27.12538319 37.8191785 -27.0057699 35.55324551 -26.88671875 33.28710938 C-25.35975315 5.60975315 -25.35975315 5.60975315 -20 0.25 C-13.57757047 -3.73190631 -6.59163074 -3.84511793 0 0 Z M-75 94.25 C-75.65484375 94.61222656 -76.3096875 94.97445312 -76.984375 95.34765625 C-84.95200035 100.3699842 -87.91022699 108.42326644 -90 117.25 C-92.16927502 127.70196147 -92.27230174 138.7457974 -87 148.25 C-81.24144708 155.98634813 -75.3587144 161.56649766 -66 164.25 C-55.72438929 165.46163664 -47.52611639 164.24737321 -39 158.25 C-38.23453857 157.84974609 -37.46907715 157.44949219 -36.68041992 157.03710938 C-33.00750104 154.66173039 -30.50616863 152.44837769 -29.49133301 148.04077148 C-28.79284926 142.3230923 -28.85068687 136.6099483 -28.99145508 130.85986328 C-29.06233863 127.75706378 -29.05311882 124.6619992 -29.03320312 121.55859375 C-29.0499354 119.57026683 -29.07126639 117.58197219 -29.09765625 115.59375 C-29.09492203 114.67581665 -29.09218781 113.7578833 -29.08937073 112.81213379 C-29.35285668 104.75435371 -32.74027477 100.42394298 -38.375 94.9375 C-49.21198057 87.97086963 -63.79452764 87.92098321 -75 94.25 Z " fill="#FFFFFF" transform="translate(980,153.75)"/>
<path d="M0 0 C4.273126 1.62084089 4.6698843 1.11139226 8.625 -0.625 C13.5018664 -0.85246578 16.85122739 -0.11219016 21 2.5 C26.53838707 8.5658525 27.09264181 14.18200128 26.9375 22.0625 C26.92058105 23.53771118 26.92058105 23.53771118 26.90332031 25.04272461 C26.38054248 55.23773013 23.39425917 85.13478195 19.96972656 115.11230469 C19.2845162 121.11567065 18.60897393 127.12008363 17.9375 133.125 C17.82676147 134.10662109 17.71602295 135.08824219 17.60192871 136.09960938 C16.1942241 148.6589006 15.01495292 161.11275231 15.07739258 173.76855469 C15.03622105 179.80205437 14.16964864 184.37747343 10.625 189.375 C7.27048101 192.30761041 3.47681874 193.25331161 -0.875 193.875 C-5.19149759 193.25835749 -8.95522031 192.15542958 -12.375 189.375 C-15.79552282 184.27545342 -15.84059049 179.73647084 -15.75 173.8125 C-15.74129883 172.41523682 -15.74129883 172.41523682 -15.73242188 170.98974609 C-15.50529485 158.06243277 -13.9020945 145.20096919 -12.375 132.375 C-13.31722412 132.53653564 -14.25944824 132.69807129 -15.23022461 132.86450195 C-32.59870207 135.68396367 -50.30700885 130.50928746 -64.375 120.375 C-75.1534514 112.38974485 -81.03269868 100.44421574 -83.05859375 87.39453125 C-85.36088377 65.42329437 -81.12848734 42.11462282 -67.375 24.375 C-53.11070055 7.9966468 -22.6708816 -9.42166508 0 0 Z M-38.375 37.375 C-48.97380421 48.55763664 -52.92666415 63.54007284 -52.79443359 78.62329102 C-52.50063226 86.42419043 -50.44877539 92.41213165 -45.25 98.25 C-38.35601832 104.4282929 -30.48885603 106.21840399 -21.3671875 105.875 C-17.50929908 105.23033979 -15.40925959 104.15919888 -12.734375 101.33203125 C-3.90580078 88.6219287 -4.40414377 70.60062317 -3.8125 55.75 C-3.74881226 54.19925781 -3.74881226 54.19925781 -3.68383789 52.6171875 C-3.34741222 43.86605862 -3.26792869 35.13105408 -3.375 26.375 C-17.41820186 24.08426495 -27.78180986 27.98558147 -38.375 37.375 Z " fill="#FFFFFF" transform="translate(529.375,213.625)"/>
<path d="M0 0 C4.38412665 2.57329173 5.97086291 5.42481826 8 10 C9.7974396 17.50695361 10.20202754 25.24237625 10.3125 32.9375 C10.33014404 33.63464111 10.34778809 34.33178223 10.3659668 35.05004883 C10.35741138 41.54827385 8.780903 46.04948719 4.375 50.875 C0.16706911 53.52443797 -3.04480602 54.41922115 -8 54 C-12.55916462 52.69738154 -15.34129065 50.81893595 -18.3125 47.125 C-23 38.44444444 -23 38.44444444 -23 36 C-36.949388 35.27178369 -45.1884308 36.3857349 -55.9375 46 C-76.23409743 65.1000094 -93.01096817 91.14258617 -95.1875 119.4375 C-95.45725432 129.14865552 -93.0042235 137.27482072 -87 145 C-80.60299077 151.20246691 -74.51234543 154.2585165 -65.5 154.4375 C-51.02957461 154.14900254 -40.32216513 147.15794877 -29 139 C-27.12649001 137.66457382 -25.25169342 136.33094875 -23.375 135 C-22.64023437 134.46375 -21.90546875 133.9275 -21.1484375 133.375 C-16.35878658 130.30962341 -12.76531785 129.59886414 -7.21484375 130.40234375 C-3.52629999 131.39766508 -1.54445503 133.21321592 1 136 C3.6599796 140.78796328 4.59499079 144.54591779 4 150 C-0.82839296 163.63310954 -18.71385017 173.06458929 -31.0546875 179.2421875 C-48.37084224 187.33474994 -67.59899151 189.4953238 -86 184 C-94.81700532 180.645237 -101.41837291 175.68464386 -108 169 C-108.64839844 168.3503125 -109.29679688 167.700625 -109.96484375 167.03125 C-124.56586198 151.43979071 -126.79946172 132.42018762 -126.17919922 112.04101562 C-124.16269861 77.8209454 -101.14887953 43.00309634 -76.40917969 20.55664062 C-62.00798846 8.12761496 -45.97018575 2.25897712 -27 3 C-25.3725053 3.23320808 -23.74704354 3.48148604 -22.125 3.75 C-18.53212042 4.23165415 -18.05488834 4.03049352 -14.625 2.125 C-13.75875 1.42375 -12.8925 0.7225 -12 0 C-7.8130939 -1.39563537 -4.2742511 -0.96321152 0 0 Z " fill="#FFFFFF" transform="translate(705,159)"/>
<path d="M0 0 C6.42971393 6.5029453 9.74239646 13.50245948 10.02734375 22.609375 C9.79573303 32.01277017 7.05990535 37.34269046 0.51660156 44.15209961 C-7.84818386 51.86160949 -18.91590694 56.73672025 -29.09765625 61.546875 C-30.35200847 62.14557342 -31.6061555 62.74470191 -32.86010742 63.34423828 C-44.60488568 68.94430062 -56.4281793 74.37639662 -68.28515625 79.734375 C-66.51011749 85.05949129 -61.02235056 87.13536956 -56.28515625 89.734375 C-42.22529068 96.42621815 -25.76481227 92.80956192 -11.8203125 87.859375 C-6.99310174 85.78395233 -4.12688727 82.65699015 -0.92578125 78.5390625 C1.41390987 75.96540227 3.37650422 74.82927544 6.86328125 74.58203125 C12.73443028 75.14854563 15.6233667 76.4433137 19.71484375 80.734375 C22.27512744 85.01911093 22.33509412 88.86097926 21.71484375 93.734375 C19.37846043 102.09204149 12.67778386 107.39003332 5.47265625 111.65234375 C-15.48368749 122.59724933 -38.9476664 126.04026718 -61.9296875 119.734375 C-69.69449593 117.17695164 -75.88687845 113.78435671 -82.28515625 108.734375 C-83.17203125 108.13625 -84.05890625 107.538125 -84.97265625 106.921875 C-95.8301612 96.65126221 -100.53230881 82.45957337 -101.46875 67.875 C-101.95306693 46.79296891 -97.01150513 24.54663087 -82.84765625 8.359375 C-81.34567589 6.79933489 -79.82582347 5.25622081 -78.28515625 3.734375 C-77.65996094 3.08726562 -77.03476563 2.44015625 -76.390625 1.7734375 C-57.59392685 -16.35053672 -19.96878367 -16.38031303 0 0 Z M-61.28515625 26.734375 C-66.07953434 33.32664488 -69.81605399 40.9708296 -72.28515625 48.734375 C-71.95515625 49.394375 -71.62515625 50.054375 -71.28515625 50.734375 C-65.64327555 48.0230025 -60.00590583 45.30252872 -54.37231445 42.57397461 C-52.46008097 41.64933397 -50.54669229 40.72707805 -48.63208008 39.80737305 C-33.50865621 32.57035192 -33.50865621 32.57035192 -19.28515625 23.734375 C-21.87263952 19.85315009 -23.79284205 19.50766583 -28.1640625 18.30859375 C-40.66072329 16.00945841 -52.48252446 16.91445794 -61.28515625 26.734375 Z " fill="#FFFFFF" transform="translate(1105.28515625,225.265625)"/>
<path d="M0 0 C5.18788678 2.48586242 9.26634668 6.84070226 13.4921875 10.70703125 C15.63756984 12.66861915 17.80531801 14.59409196 20 16.5 C24.71704465 20.61083811 29.35500129 24.80817189 34 29 C35.2065625 30.0828125 35.2065625 30.0828125 36.4375 31.1875 C46.72967579 40.42406802 56.92168317 49.71910944 66.71972656 59.47949219 C68.25666468 61.00662215 69.80400239 62.52270714 71.3515625 64.0390625 C82.26475712 74.83583435 93.80063925 87.51485637 94.3125 103.625 C94.04426495 121.73086609 79.80885772 134.96483002 68 147 C67.36481445 147.65033203 66.72962891 148.30066406 66.07519531 148.97070312 C60.31109219 154.85757416 54.54603191 160.70400754 48.25390625 166.03125 C44.92563083 168.93844378 41.72151121 171.9754764 38.5 175 C34.02212731 179.19862044 29.53464433 183.36506275 24.87890625 187.3671875 C22.59308937 189.35361465 20.36264049 191.39699321 18.125 193.4375 C2.38464286 207.6013961 2.38464286 207.6013961 -5.4375 208.3125 C-11.18055634 207.80872313 -14.48859995 205.80659788 -18.25 201.5625 C-21.84530255 197.24233806 -23.2026441 193.98716414 -23.4609375 188.29296875 C-22.25772976 182.30752008 -18.13577317 177.76658477 -13.9152832 173.60644531 C-13.42197006 173.11590668 -12.92865692 172.62536804 -12.4203949 172.1199646 C-11.35762795 171.06520809 -10.29138215 170.0139472 -9.22197914 168.96591949 C-7.51939827 167.29736929 -5.82626045 165.61971118 -4.13505554 163.93963623 C-1.14452856 160.97181583 1.85401601 158.01225021 4.85528564 155.05529785 C9.64105476 150.33983502 14.41946689 145.61703857 19.18839455 140.88454437 C20.83933467 139.25003743 22.49669405 137.62225939 24.15470886 135.99493408 C39.30336563 121.80945829 39.30336563 121.80945829 48.75 104.0625 C46.16376875 93.50205573 37.61216715 85.96704279 30.29980469 78.41186523 C28.53256782 76.55851778 26.78656736 74.69217565 25.05175781 72.80883789 C14.7980741 61.69100916 4.10279795 51.04959185 -6.66455078 40.43139648 C-8.99424643 38.13177517 -11.31777887 35.82606801 -13.640625 33.51953125 C-14.35196594 32.82164993 -15.06330688 32.12376862 -15.79620361 31.40473938 C-16.45159119 30.75273056 -17.10697876 30.10072174 -17.78222656 29.42895508 C-18.35732971 28.86130936 -18.93243286 28.29366364 -19.52496338 27.70881653 C-22.70487216 24.02492109 -23.3952766 20.91353675 -23.25 16.01953125 C-22.41954828 9.31103845 -17.7469197 5.27601918 -12.8125 1.1875 C-8.53094438 -0.62026793 -4.57546024 -0.63774648 0 0 Z " fill="#FFFFFF" transform="translate(1329,169)"/>
<path d="M0 0 C4.6208099 2.29536978 7.49063723 5.88374789 9.98828125 10.33203125 C11.212259 14.00396449 11.71424356 17.52905439 10.98828125 21.33203125 C7.54731709 27.40202706 2.59632876 31.96003549 -2.34375 36.82421875 C-3.73452574 38.20704456 -5.12529877 39.5898731 -6.51591778 40.97285652 C-8.45689505 42.90075227 -10.4023941 44.82405259 -12.34796143 46.74731445 C-15.74136753 50.1026996 -19.13006551 53.46282129 -22.51506042 56.82669067 C-24.31312442 58.61262442 -26.11385435 60.39587951 -27.91767883 62.17599487 C-32.29077782 66.51457703 -36.50911758 70.90733062 -40.4929657 75.60769653 C-42.04329043 77.36787653 -43.67881632 78.9755721 -45.38671875 80.58203125 C-51.34908168 86.43623341 -58.94767617 94.61280241 -60.51171875 103.01953125 C-58.32536004 117.5041577 -40.03648664 131.47337478 -30.0078125 141.42578125 C-29.46420956 141.96537476 -28.92060661 142.50496826 -28.36053085 143.06091309 C-23.23177686 148.1471771 -18.08820191 153.21838288 -12.94116211 158.28613281 C-10.10050498 161.08400714 -7.26725831 163.88921907 -4.43818855 166.69880676 C-2.8535718 168.26784885 -1.26052427 169.82797372 0.332901 171.38806152 C1.30517237 172.35263047 2.27699349 173.31765354 3.24829102 174.28320312 C4.09367935 175.11589722 4.93906769 175.94859131 5.81007385 176.80651855 C9.58306845 181.18110004 11.64979136 185.36749548 11.40234375 191.25 C10.08437107 197.87716453 5.27609767 202.53859773 -0.01171875 206.33203125 C-4.96459802 207.98299101 -8.69752525 207.78520142 -13.63671875 206.08203125 C-19.7316378 202.7736997 -24.57131275 197.48824799 -29.53857422 192.72851562 C-31.33909156 191.02169441 -33.19344965 189.38722826 -35.07421875 187.76953125 C-39.43285513 184.00064694 -43.65495034 180.08556728 -47.88671875 176.17578125 C-50.19632811 174.05619351 -52.54478465 171.98681964 -54.91015625 169.9296875 C-61.7925746 163.92757847 -68.40419555 157.63357795 -75.01171875 151.33203125 C-75.64513184 150.72875 -76.27854492 150.12546875 -76.93115234 149.50390625 C-104.68199829 122.90781324 -104.68199829 122.90781324 -106.21484375 106.10546875 C-106.52186641 90.3961426 -98.55069082 79.40840929 -88 68.40625 C-82.62296322 62.88797773 -77.19843566 57.41642219 -71.76171875 51.95703125 C-70.98285812 51.17388046 -70.98285812 51.17388046 -70.18826294 50.37490845 C-64.86539993 45.03146993 -59.52080307 39.76372171 -53.78613281 34.85693359 C-50.95688123 32.42552119 -48.24022999 29.8751874 -45.51171875 27.33203125 C-41.38394565 23.50295128 -37.2313573 19.71790689 -32.96484375 16.04296875 C-31.49747281 14.75755181 -30.05326403 13.44561724 -28.62109375 12.12109375 C-11.39531706 -3.7836878 -11.39531706 -3.7836878 0 0 Z " fill="#FFFFFF" transform="translate(119.01171875,151.66796875)"/>
<path d="M0 0 C4.26221581 2.17609172 7.28149932 4.0753175 9.625 8.3125 C11.49958954 17.58321522 7.63339025 24.5965626 3.3125 32.5625 C2.12589251 34.81612407 0.94241552 37.07139863 -0.23828125 39.328125 C-0.71321266 40.22840927 -0.71321266 40.22840927 -1.19773865 41.1468811 C-4.64209934 47.71957444 -7.80757641 54.42173093 -10.99206543 61.12307739 C-14.42280616 68.3373888 -17.90484847 75.52459771 -21.42578125 82.6953125 C-21.93391861 83.73018799 -22.44205597 84.76506348 -22.96559143 85.83129883 C-24.00618935 87.94930014 -25.04712147 90.06713729 -26.08837891 92.18481445 C-34.47726405 109.24819106 -42.83021018 126.32712287 -51.07421875 143.4609375 C-54.92480127 151.46309465 -58.80592502 159.45034572 -62.6875 167.4375 C-63.4023512 168.90885054 -64.11719496 170.38020471 -64.83203125 171.8515625 C-68.14640909 178.67283202 -71.46256807 185.49323188 -74.78125 192.31240845 C-76.2799176 195.39226531 -77.7777345 198.47253562 -79.27557373 201.55279541 C-80.36188237 203.78553869 -81.44968296 206.01755065 -82.53759766 208.24951172 C-85.4858606 214.30532675 -88.42073416 220.36261835 -91.23046875 226.484375 C-91.83858398 227.80405273 -91.83858398 227.80405273 -92.45898438 229.15039062 C-93.15436318 230.67037793 -93.84058681 232.19461931 -94.51367188 233.72460938 C-97.05379886 239.28216583 -100.43537547 244.53325357 -105.75 247.75 C-113.40877197 249.39116542 -119.58658449 248.15435786 -126.375 244.3125 C-130.29895083 241.18126651 -132.07920517 238.31491583 -133.5 233.5 C-134.01012061 222.73936645 -125.06392444 210.23766187 -120.4375 200.8125 C-119.57988767 199.05868687 -118.72246752 197.30477975 -117.86523438 195.55078125 C-112.6389921 184.86941018 -107.37550727 174.20694802 -102.00024414 163.59960938 C-98.13772284 155.94725047 -94.45104009 148.21499231 -90.76174927 140.47796631 C-86.13495594 130.78568132 -81.42101192 121.13725035 -76.68942261 111.49578857 C-74.17450901 106.37083967 -71.66343739 101.24400891 -69.15234375 96.1171875 C-68.65362259 95.0990799 -68.15490143 94.08097229 -67.6410675 93.03201294 C-63.68043369 84.94353227 -59.73879145 76.84598686 -55.80923462 68.74237061 C-54.81592324 66.69455736 -53.82159911 64.64723924 -52.8269043 62.60009766 C-52.15022458 61.20735837 -51.47354819 59.81461746 -50.796875 58.421875 C-50.28626274 57.37095169 -50.28626274 57.37095169 -49.76533508 56.29879761 C-47.69838099 52.04287484 -45.63566407 47.78492969 -43.57617188 43.52539062 C-41.0732222 38.34914596 -38.56378896 33.17608302 -36.05081177 28.00469971 C-35.06648705 25.97614592 -34.08441349 23.9464981 -33.10470581 21.91571045 C-31.73581695 19.07894363 -30.35903739 16.24613514 -28.98046875 13.4140625 C-28.37063141 12.14311737 -28.37063141 12.14311737 -27.74847412 10.84649658 C-21.45941817 -2.00959009 -13.68255564 -6.50674101 0 0 Z " fill="#FFFFFF" transform="translate(1259.375,159.6875)"/>
<path d="M0 0 C3.32289029 2.9696461 6.78376864 6.39516645 7.16796875 11.0234375 C7.17441406 11.79945313 7.18085938 12.57546875 7.1875 13.375 C7.20167969 14.14585937 7.21585937 14.91671875 7.23046875 15.7109375 C7 18 7 18 6.05078125 19.8515625 C-1.82047672 35.94521263 1.06326744 70.58423144 6.5859375 86.8359375 C8.75077554 92.9096558 11.04277167 98.91556018 13.72265625 104.78125 C15.489824 109.23429656 15.34834157 112.45038122 14 117 C12.10277196 120.55257841 9.75223683 122.62388158 6.125 124.4375 C1.30126682 125.30577197 -2.1108347 125.25197226 -6.3046875 122.47265625 C-12.25839372 117.85609389 -12.25839372 117.85609389 -14.6953125 115.04296875 C-16.89583581 113.76030361 -16.89583581 113.76030361 -18.94946289 114.484375 C-21.4144797 115.45951169 -23.79574974 116.54442493 -26.1875 117.6875 C-42.46020441 125.26250197 -58.36293565 125.92449546 -75.375 119.78125 C-88.06868864 113.95251542 -94.89833614 104.62939068 -100 92 C-106.87482652 71.19859477 -105.87637686 47.24497158 -96.796875 27.35546875 C-93.78916198 21.7388916 -90.1132735 16.84955654 -86 12 C-85.38511719 11.27167969 -84.77023437 10.54335937 -84.13671875 9.79296875 C-62.19841364 -14.02442031 -26.81691318 -17.04916335 0 0 Z M-63.04296875 31.42578125 C-73.0061569 45.08533345 -75.00199194 58.4750835 -73 75 C-71.73706381 83.02713679 -68.21893861 88.71504118 -62 94 C-55.36649208 97.52440184 -46.24853139 96.99965444 -39.078125 95.3125 C-36.57952226 94.3813437 -34.33405321 93.28536147 -32 92 C-30.80117188 91.46826172 -30.80117188 91.46826172 -29.578125 90.92578125 C-26.97483782 89.50295016 -25.60159775 88.51222047 -24 86 C-23.59713041 81.63557949 -24.06393009 77.55919301 -24.6953125 73.23632812 C-25.98051494 63.80327177 -26.15911407 54.36517585 -26.13037109 44.86230469 C-26.12497168 42.7388609 -26.13037284 40.61562525 -26.13671875 38.4921875 C-26.13959809 31.92154221 -26.06016047 25.49558634 -25 19 C-39.29157198 12.58547039 -53.64960387 20.27228299 -63.04296875 31.42578125 Z " fill="#FFFFFF" transform="translate(421,225)"/>
<path d="M0 0 C13.23208388 11.13700393 19.56212986 26.51632658 21.71875 43.4375 C23.12375908 61.23428162 22.19557639 78.80982866 14 95 C13.49597656 96.00675781 12.99195313 97.01351562 12.47265625 98.05078125 C5.70922965 110.57505593 -4.18039747 120.00488724 -17.6875 124.8125 C-31.37729736 128.87404546 -45.99589735 127.84986826 -58.75 121.3125 C-73.21500066 112.69639091 -81.19200409 100.21370919 -86.125 84.47265625 C-91.56165671 62.89592495 -88.07082283 40.11867939 -77.25 20.875 C-68.65274037 7.17655306 -56.78578144 -2.85273072 -40.953125 -6.75 C-26.77308935 -9.39498074 -12.04957284 -8.75340346 0 0 Z M-47.8125 32.0625 C-56.50117213 44.39877505 -60.06626058 59.84552599 -57.53515625 74.734375 C-55.64324217 81.94379905 -52.07932686 89.16622421 -45.8125 93.5 C-39.73846446 96.73948562 -33.18011968 97.09447928 -26.5234375 95.3515625 C-18.69949378 92.20585317 -13.47680327 86.8051832 -9.82421875 79.28515625 C-4.6015821 64.80533425 -5.34570687 47.2758538 -11 33 C-13.82289042 28.48075548 -16.9681603 24.96297043 -22 23 C-32.38560205 21.55332523 -40.96363315 23.9442311 -47.8125 32.0625 Z " fill="#FFFFFF" transform="translate(816,223)"/>
</svg>
