<?xml version="1.0" standalone="no"?>

<svg version="1.0" xmlns="http://www.w3.org/2000/svg"
 width="3264.000000pt" height="1958.000000pt" viewBox="0 0 3264.000000 1958.000000"
 preserveAspectRatio="xMidYMid meet">

<g transform="translate(0.000000,1958.000000) scale(0.100000,-0.100000)"
fill="#ffffffff" stroke="none">
<path d="M14496 18326 c-14 -19 -26 -42 -26 -51 0 -15 -7 -31 -59 -132 -11 -23 -21 -51 -21 -61 0 -11 -6 -25 -14 -31 -8 -7 -18 -25 -21 -41 -3 -16 -12 -34 -20 -40 -7 -6 -16 -26 -19 -44 -4 -19 -13 -39 -20 -45 -8 -7 -17 -27 -20 -45 -4 -19 -13 -39 -21 -46 -8 -7 -15 -24 -15 -39 0 -15 -9 -34 -20 -44 -11 -9 -20 -27 -20 -40 0 -13 -9 -32 -20 -42 -11 -10 -20 -28 -20 -40 0 -13 -7 -28 -15 -35 -8 -7 -15 -20 -15 -30 0 -9 -9 -29 -20 -43 -11 -14 -20 -34 -20 -45 0 -10 -9 -31 -20 -45 -11 -14 -20 -30 -20 -36 0 -5 -18 -44 -40 -86 -22 -42 -40 -84 -40 -94 0 -10 -9 -26 -20 -36 -11 -10 -20 -29 -20 -42 0 -12 -9 -32 -20 -43 -11 -11 -20 -31 -20 -44 0 -13 -7 -26 -15 -30 -8 -3 -15 -16 -15 -29 0 -13 -9 -32 -20 -42 -11 -10 -20 -30 -20 -44 0 -15 -9 -34 -20 -44 -11 -9 -20 -24 -20 -32 0 -14 -19 -56 -52 -115 -4 -8 -13 -26 -18 -40 -6 -14 -19 -43 -30 -65 -10 -22 -21 -47 -25 -55 -3 -8 -18 -37 -34 -65 -16 -27 -30 -57 -30 -66 -1 -9 -10 -28 -21 -42 -11 -14 -20 -34 -20 -45 0 -10 -9 -27 -20 -37
-11 -10 -20 -28 -20 -40 0 -13 -6 -28 -14 -34 -8 -7 -18 -25 -21 -41 -3 -16 -13 -34 -21 -41 -8 -6 -14 -22 -14 -35 0 -13 -9 -32 -20 -41 -11 -10 -20 -28 -20 -41 0 -13 -9 -35 -20 -49 -11 -14 -20 -34 -20 -43 0 -10 -7 -23 -15 -30 -8 -7 -15 -18 -15 -25 0 -6 -11 -33 -25 -59 -14 -26 -25 -52 -25 -57 0 -6 -9 -22 -20 -36 -11 -14 -20 -34 -20 -43 0 -10 -6 -23 -14 -29 -8 -7 -18 -25 -21 -41 -3 -16 -13 -34 -21 -41 -8 -6 -14 -23 -14 -38 0 -15 -9 -34 -20 -44 -11 -9 -20 -26 -20 -38 0 -11 -9 -32 -20 -46 -11 -14 -20 -34 -20 -43 0 -10 -7 -23 -15 -30 -8 -7 -15 -20 -15 -30 0 -9 -9 -29 -20 -43 -11 -14 -20 -30 -20 -36 0 -10 -30 -75 -66 -143 -8 -14 -14 -33 -14 -41 0 -8 -9 -26 -20 -40 -11 -14 -20 -34 -20 -45 0 -10 -9 -27 -20 -37 -11 -10 -20 -28 -20 -40 0 -13 -7 -28 -15 -35 -8 -7 -15 -20 -15 -30 0 -9 -9 -29 -20 -43 -11 -14 -20 -33 -20 -42 0 -9 -9 -28 -20 -42 -11 -14 -20 -34 -20 -43 0 -10 -7 -23 -15 -30 -8 -6 -17 -22 -20 -33 -7 -22 -41 -99 -57 -127 -4 -8 -11 -22 -14 -30 -3 -8 -23 -50 -45 -92 -21 -43 -39 -84 -39 -92 0 -7 -9 -25 -20 -39 -11 -14 -20 -34 -20 -45 0 -10 -9 -27 -20 -37 -11 -10 -20 -29 -20 -42 0 -12 -9 -32 -20 -43 -11 -11 -20 -28 -20 -39 0 -10 -7 -24 -15 -31 -8 -7 -15 -22 -15 -35 0 -12 -9 -30 -20 -40 -11 -10 -20 -28 -20 -40 0 -12 -9 -32 -20 -45 -11 -13 -20 -33 -20 -46 0 -13 -4 -26 -10 -29 -5 -3 -21 -31 -35 -61 -14 -30 -36 -78 -50 -108 -14 -30 -25 -59 -25 -64 0 -5 -6 -15 -14 -21 -8 -7 -18 -25 -21 -41 -3 -16 -13 -34 -21 -41 -8 -6 -14 -21 -14 -34 0 -12 -9 -30 -20 -40 -11 -10 -20 -28 -20 -40 0 -12 -9 -30 -20 -40 -11 -10 -20 -30 -20 -44 0 -15 -9 -34 -20 -44 -11 -9 -20 -28 -20 -41 0 -13 -6 -26 -14 -29 -7 -3 -16 -21 -20 -40 -4 -19 -13 -40 -21 -47 -8 -7 -15 -20 -15 -30 0 -9 -9 -29 -20 -43 -11 -14 -20 -31 -20 -37 0 -11 -9 -31 -61 -132 -10 -20 -19 -42 -19 -48 0 -7 -9 -23 -20 -37 -11 -14 -20 -34 -20 -43 0 -10 -7 -23 -15 -30 -8 -7 -17 -27 -21 -45 -3 -19 -12 -36 -20 -39 -8 -3 -14 -17 -14 -31 0 -14 -9 -33 -20 -42 -11 -10 -20 -29 -20 -43 0 -14 -9 -33 -20 -43 -11 -9 -20 -26 -20 -38 0 -11 -9 -32 -20 -46 -11 -14 -20 -34 -20 -43 0 -10 -6 -23 -14 -29 -8 -7 -18 -25 -21 -41 -3 -16 -13 -34 -21 -41 -8 -6 -14 -18 -14 -26 0 -14 -8 -32 -61 -135 -10 -20 -19 -45 -19 -55 0 -10 -9 -26 -20 -36 -11 -9 -20 -27 -20 -40 0 -12 -9 -30 -20 -40 -11 -9 -20 -28 -20 -41 0 -13 -7 -29 -15 -36 -8 -7 -15 -22 -15 -35 0 -12 -9 -30 -20 -40 -11 -10 -20 -28 -20 -40 0 -12 -9 -30 -20 -40 -11 -10 -20 -25 -20 -34 0 -15 -18 -58 -61 -143 -11 -20 -19 -42 -19 -48 0 -7 -9 -23 -20 -37 -11 -14 -20 -36 -20 -48 0 -13 -6 -25 -14 -28 -7 -3 -16 -19 -19 -37 -4 -17 -14 -38 -22 -46 -8 -9 -15 -25 -15 -37 0 -13 -9 -30 -20 -40 -11 -9 -20 -26 -20 -38 0 -11 -9 -32 -20 -46 -11 -14 -20 -34 -20 -43 0 -10 -7 -23 -15 -30 -8 -7 -15 -18 -15 -24 0 -6 -11 -33 -25 -61 -13 -27 -25 -55 -25 -61 0 -6 -7 -17 -15 -24 -8 -7 -17 -27 -21 -46 -3 -18 -12 -38 -20 -45 -8 -6 -14 -21 -14 -34 0 -12 -9 -30 -20 -40 -11 -10 -20 -27 -20 -37 0 -11 -9 -31 -20 -45 -11 -14 -20 -34 -20 -43 0 -10 -7 -23 -15 -30 -8 -7 -15 -18 -15 -24 0 -6 -9 -28 -20 -49 -11 -20 -20 -43 -20 -50 0 -8 -9 -24 -20 -37 -11 -13 -20 -29 -20 -36 0 -7 -11 -34 -25 -60 -14 -26 -25 -53 -25 -59 0 -7 -7 -18 -15 -25 -8 -7 -15 -21 -15 -32 0 -11 -9 -31 -20 -45 -11 -14 -20 -36 -20 -48 0 -13 -7 -25 -15 -29 -8 -3 -15 -16 -15 -29 0 -14 -9 -36 -20 -50 -11 -14 -20 -32 -20 -40 0 -8 -9 -26 -20 -40 -11 -14 -20 -33 -20 -42 0 -9 -9 -28 -20 -42 -11 -14 -20 -32 -20 -39 0 -7 -9 -28 -20 -46 -11 -18 -20 -40 -20 -49 0 -9 -9 -26 -20 -39 -11 -13 -20 -33 -20 -45 0 -13 -7 -28 -15 -35 -8 -7 -15 -20 -15 -30 0 -9 -9 -29 -20 -43 -11 -14 -20 -34 -20 -45 0 -10 -9 -27 -20 -37 -11 -10 -20 -29 -20 -42 0 -32 -18 -29 -100 18 -8 5 -26 15 -40 21 -14 7 -36 20 -49 30 -13 10 -32 18 -43 18 -10 0 -21 6 -24 14 -3 8 -20 17 -39 20 -18 4 -35 13 -38 20 -3 8 -19 17 -36 21 -17 4 -33 10 -36 15 -3 5 -36 23 -73 41 -37 18 -69 35 -72 39 -3 4 -34 21 -70 39 -71 35 -91 46 -132 73 -15 10 -34 18 -43 18 -8 0 -23 9 -32 20 -10 11 -27 20 -39 20 -11 0 -29 9 -39 20 -10 11 -28 20 -39 20 -12 0 -29 9 -39 20 -9 11 -24 20 -32 20 -9 0 -28 8 -43 18 -46 31 -66 42 -99 57 -17 8 -34 19 -38 25 -3 5 -14 10 -24 10 -10 0 -26 9 -36 20 -10 11 -28 20 -39 20 -12 0 -29 9 -39 20 -9 11 -25 20 -35 20 -11 0 -27 9 -37 20 -10 11 -26 20 -37 20 -10 0 -27 9 -38 20 -11 11 -29 20 -39 20 -11 0 -23 5 -27 11 -3 6 -21 18 -38 25 -17 8 -62 33 -101 54 -38 22 -81 44 -95 50 -14 5 -32 15 -40 20 -8 6 -28 17 -45 26 -16 8 -48 26 -70 39 -22 14 -51 29 -65 35 -32 14 -37 16 -85 45 -22 13 -68 38 -102 55 -35 17 -65 35 -68 40 -3 5 -18 11 -34 15 -16 3 -32 13 -35 21 -3 8 -14 14 -24 14 -11 0 -31 9 -45 20 -14 11 -32 20 -40 20 -7 0 -24 9 -37 20 -13 11 -29 20 -36 20 -7 0 -19 6 -26 13 -7 7 -31 22 -53 33 -119 60 -165 86 -170 94 -4 6 -14 10 -24 10 -10 0 -26 9 -36 20 -10 11 -28 20 -40 20 -12 0 -30 9 -40 20 -10 11 -26 20 -35 20 -9 0 -25 9 -35 20 -10 11 -28 20 -40 20 -12 0 -30 9 -40 20 -10 11 -24 20 -32 20 -8 0 -26 8 -41 18 -40 27 -61 38 -132 73 -36 18 -71 39 -78 46 -7 7 -21 13 -31 13 -10 0 -26 9 -36 20 -10 11 -26 20 -37 20 -10 0 -27 9 -38 20 -11 11 -29 20 -40 20 -11 0 -23 6 -26 14 -3 8 -19 18 -35 21 -16 4 -31 10 -34 15 -3 5 -33 23 -68 40 -34 18 -80 43 -102 56 -22 13 -51 29 -65 35 -14 6 -32 15 -40 20 -8 5 -28 15 -45 24 -16 8 -37 19 -45 24 -8 5 -26 14 -40 20 -14 6 -43 22 -65 35 -22 13 -85 47 -140 75 -111 58 -128 67 -167 93 -15 10 -34 18 -43 18 -8 0 -23 9 -32 20 -10 11 -27 20 -39 20 -11 0 -29 9 -39 20 -10 11 -26 20 -36 20 -10 0 -24 6 -32 14 -8 8 -29 22 -48 30 -19 9 -41 20 -49 25 -8 5 -22 12 -30 16 -8 3 -33 17 -55 30 -22 13 -69 38 -105 56 -36 18 -71 39 -78 46 -7 7 -21 13 -30 13 -10 0 -25 9 -35 20 -9 11 -24 20 -34 20 -9 0 -24 6 -32 14 -9 8 -43 28 -76 45 -68 36 -88 48 -127 73 -15 10 -32 18 -39 18 -6 0 -22 9 -36 20 -14 11 -33 20 -42 20 -9 0 -24 9 -34 20 -9 11 -25 20 -36 20 -10 0 -24 7 -31 14 -6 8 -33 25 -58 37 -26 12 -58 31 -71 41 -13 10 -32 18 -42 18 -10 0 -23 9 -29 20 -6 11 -21 20 -33 20 -38 0 -77 49 -77 98 0 24 -8 55 -20 74 -14 23 -20 51 -20 88 0 31 -8 80 -19 110 -47 137 -45 856 2 947 10 18 17 49 17 70 0 21 9 51 20 68 11 17 20 42 20 56 0 15 9 38 20 52 11 14 20 34 20 45 0 11 7 25 15 32 8 7 15 17 15 23 0 41 215 292 273 318 35 16 65 34 85 52 10 10 28 17 39 17 11 0 26 7 33 15 7 8 28 17 49 20 20 4 48 13 63 21 68 37 145 38 3175 41 l2962 3 26 37 c14 21 25 46 25 56 0 10 9 30 20 44 11 14 20 36 20 48 0 12 7 28 15 35 8 7 15 18 15 24 0 6 12 34 25 61 14 28 25 55 25 61 0 6 7 17 15 24 8 7 15 25 15 40 0 15 9 35 20 45 11 10 20 27 20 37 0 11 9 36 19 56 54 104 61 121 61 140 0 11 7 25 15 32 8 7 15 23 15 35 0 12 9 34 20 48 11 14 20 31 20 39 0 7 9 30 20 51 11 20 20 45 20 54 0 10 9 32 20 48 11 17 20 38 20 48 0 11 9 30 20 44 11 14 20 36 20 49 0 12 7 30 16 38 8 9 18 32 21 51 3 19 12 40 19 46 8 6 14 19 14 28 0 9 9 31 20 49 11 18 20 45 20 61 0 15 9 36 20 46 11 10 20 28 20 39 0 12 9 35 20 51 11 17 20 41 20 53 0 13 9 35 20 49 11 14 20 35 20 47 0 11 9 35 20 51 11 17 20 40 20 51 0 12 7 27 15 34 8 7 15 22 15 34 0 12 9 38 20 59 11 20 20 47 20 60 0 13 9 32 20 42 11 10 20 29 20 42 0 14 9 36 20 50 11 14 20 35 20 47 0 12 6 30 14 41 7 11 17 36 21 55 4 19 13 42 20 50 7 8 16 34 20 57 3 23 13 44 21 47 8 3 14 16 14 28 0 13 9 40 20 61 11 20 20 46 20 57 0 12 10 38 22 60 18 30 20 44 13 64 l-10 27 -3490 -1 c-3754 0 -4192 -5 -4290 -46 -19 -8 -60 -14 -92 -14 -39 0 -71 -7 -96 -20 -20 -11 -56 -20 -79 -20 -26 0 -55 -8 -73 -20 -18 -12 -47 -20 -71 -20 -24 0 -47 -6 -53 -14 -7 -8 -31 -18 -54 -21 -23 -4 -49 -13 -57 -20 -8 -7 -32 -15 -54 -18 -21 -3 -46 -13 -56 -22 -9 -8 -28 -15 -42 -15 -14 0 -33 -9 -43 -20 -10 -11 -27 -20 -37 -20 -16 0 -57 -18 -118 -52 -8 -4 -26 -13 -40 -18 -14 -6 -32 -14 -40 -20 -8 -5 -29 -16 -46 -24 -17 -8 -35 -19 -38 -25 -4 -6 -15 -11 -25 -11 -10 0 -26 -9 -36 -20 -10 -11 -26 -20 -37 -20 -10 0 -26 -9 -35 -20 -10 -11 -22 -20 -28 -20 -6 0 -18 -9 -28 -20 -9 -11 -23 -20 -30 -20 -7 0 -29 -14 -48 -31 -19 -17 -47 -37 -64 -45 -16 -7 -50 -31 -75 -54 -25 -23 -70 -58 -99 -78 -70 -47 -417 -394 -464 -464 -20 -29 -56 -75 -81 -103 -25 -27 -49 -58 -52 -69 -7 -21 -17 -35 -49 -69 -11 -12 -26 -33 -33 -47 -16 -34 -33 -59 -54 -82 -10 -10 -18 -23 -18 -30 0 -6 -6 -19 -14 -27 -8 -9 -26 -39 -41 -68 -14 -28 -33 -57 -41 -64 -8 -6 -14 -21 -14 -33 0 -12 -9 -29 -20 -39 -11 -9 -20 -27 -20 -40 0 -12 -9 -30 -20 -40 -11 -9 -20 -24 -20 -33 0 -9 -9 -27 -20 -41 -11 -14 -20 -34 -20 -43 0 -10 -6 -23 -14 -29 -8 -7 -17 -27 -20 -45 -4 -19 -13 -39 -21 -46 -8 -7 -15 -22 -15 -34 0 -11 -9 -34 -20 -51 -11 -16 -20 -42 -20 -56 0 -14 -9 -34 -20 -44 -11 -10 -20 -29 -20 -42 0 -13 -9 -40 -20 -60 -11 -21 -20 -49 -20 -63 0 -14 -9 -38 -20 -55 -11 -16 -20 -46 -20 -65 0 -19 -7 -43 -15 -54 -8 -10 -17 -39 -21 -65 -4 -25 -13 -55 -20 -66 -8 -11 -14 -40 -14 -65 0 -26 -8 -61 -20 -83 -13 -25 -20 -56 -20 -95 0 -32 -9 -83 -20 -115 -19 -55 -20 -82 -20 -1002 0 -920 1 -947 20 -1002 11 -32 20 -83 20 -114 0 -35 8 -73 20 -100 11 -24 20 -62 20 -84 0 -22 6 -52 14 -66 7 -14 17 -48 21 -75 4 -26 13 -57 21 -68 8 -11 14 -35 14 -52 0 -17 9 -41 20 -54 11 -13 20 -35 20 -50 0 -15 9 -39 20 -53 11 -14 20 -36 20 -50 0 -13 6 -30 14 -36 8 -7 18 -27 22 -44 3 -18 15 -44 25 -59 11 -14 19 -31 19 -37 0 -5 15 -36 34 -68 18 -32 36 -68 40 -80 4 -11 13 -27 21 -33 8 -7 15 -21 15 -31 0 -10 9 -24 20 -31 11 -7 20 -20 20 -30 0 -9 18 -39 40 -67 22 -28 40 -53 40 -56 0 -8 40 -62 73 -99 15 -17 27 -33 27 -37 0 -17 107 -136 220 -247 163 -160 151 -149 183 -157 15 -4 27 -11 27 -16 0 -5 12 -14 27 -20 37 -13 43 -16 78 -39 17 -11 44 -27 60 -35 17 -9 48 -27 70 -40 22 -13 51 -29 65 -34 14 -6 32 -16 40 -21 8 -6 26 -15 39 -20 13 -6 35 -19 49 -30 13 -11 30 -20 37 -20 8 0 37 -16 66 -35 30 -19 57 -35 62 -35 5 0 20 -9 34 -20 14 -11 34 -20 45 -20 10 0 21 -6 24 -14 3 -8 18 -18 34 -21 16 -3 34 -12 40 -20 6 -8 24 -17 40 -20 16 -3 31 -13 34 -21 3 -8 14 -14 25 -14 11 0 26 -6 34 -14 7 -8 40 -28 72 -45 32 -17 63 -35 69 -40 6 -5 24 -13 39 -16 16 -4 31 -13 34 -21 2 -7 17 -16 33 -19 16 -3 34 -13 41 -21 6 -8 17 -14 24 -14 7 0 23 -8 36 -19 13 -10 35 -22 49 -26 14 -4 27 -11 30 -15 6 -8 28 -21 134 -74 42 -21 79 -42 82 -47 3 -5 13 -9 23 -9 10 0 26 -9 35 -19 10 -11 31 -23 46 -26 16 -3 31 -13 34 -21 3 -8 14 -14 23 -14 10 0 29 -7 42 -16 31 -22 116 -70 168 -95 23 -11 45 -24 48 -29 3 -6 14 -10 24 -10 10 0 26 -9 36 -20 10 -11 26 -20 37 -20 10 0 26 -9 35 -20 10 -11 25 -20 34 -20 9 0 27 -8 40 -18 13 -10 49 -30 79 -46 30 -15 73 -38 95 -51 22 -13 54 -30 71 -38 17 -8 35 -20 38 -26 4 -6 17 -11 29 -11 13 0 30 -9 40 -20 9 -11 25 -20 35 -20 11 0 27 -9 37 -20 10 -11 26 -20 35 -20 9 0 27 -9 40 -20 13 -11 29 -20 35 -20 7 0 18 -7 25 -15 7 -8 20 -15 30 -15 9 0 25 -9 35 -20 10 -11 26 -20 35 -20 9 0 27 -9 40 -20 13 -11 31 -20 40 -20 9 0 25 -9 35 -20 10 -11 29 -20 42 -20 12 0 23 -5 23 -10 0 -6 19 -20 43 -31 79 -37 167 -85 179 -97 7 -7 19 -12 28 -12 9 0 25 -9 35 -20 10 -11 26 -20 35 -20 9 0 25 -9 35 -20 10 -11 28 -20 40 -20 12 0 30 -9 40 -20 10 -11 26 -20 36 -20 10 0 21 -5 25 -11 3 -6 21 -18 38 -26 50 -23 149 -77 176 -96 13 -9 31 -17 40 -17 9 0 23 -9 33 -20 9 -11 25 -20 35 -20 11 0 27 -9 37 -20 10 -11 26 -20 36 -20 10 0 21 -5 25 -11 3 -6 25 -19 48 -30 49 -22 135 -70 167 -93 13 -9 32 -16 42 -16 9 0 20 -6 23 -14 3 -8 18 -18 34 -21 15 -3 36 -15 46 -26 9 -10 25 -19 35 -19 10 0 20 -4 24 -10 3 -5 31 -22 63 -39 31 -16 77 -41 102 -55 25 -15 62 -34 83 -43 20 -9 37 -19 37 -23 0 -5 12 -11 27 -15 14 -3 38 -15 51 -26 14 -10 33 -19 43 -19 10 0 22 -6 26 -13 4 -7 26 -22 48 -34 84 -43 133 -71 156 -86 13 -10 30 -17 39 -17 9 0 23 -9 33 -20 9 -11 26 -20 36 -20 11 0 23 -5 27 -11 3 -6 21 -17 38 -25 17 -8 49 -25 71 -38 22 -12 65 -36 96 -53 31 -17 67 -38 80 -47 13 -9 30 -16 39 -16 9 0 23 -9 33 -20 9 -11 24 -20 33 -20 9 0 27 -9 41 -20 14 -11 34 -20 44 -20 11 0 19 -4 19 -9 0 -5 28 -24 62 -41 89 -46 120 -63 148 -83 13 -9 33 -17 43 -17 9 0 20 -6 23 -14 3 -8 17 -17 31 -21 14 -3 37 -14 52 -23 40 -27 61 -39 126 -73 33 -17 78 -42 100 -55 22 -13 51 -29 65 -36 14 -7 36 -20 49 -30 13 -10 31 -18 41 -18 22 0 65 -46 51 -55 -6 -3 -18 -21 -26 -38 -8 -18 -31 -59 -51 -92 -19 -33 -43 -79 -54 -101 -10 -23 -23 -45 -29 -48 -6 -4 -11 -16 -11 -26 0 -11 -9 -27 -19 -37 -11 -10 -22 -30 -26 -45 -4 -15 -13 -32 -21 -39 -8 -6 -14 -20 -14 -30 0 -9 -6 -24 -13 -31 -7 -7 -37 -60 -66 -118 -54 -107 -64 -127 -81 -157 -5 -10 -35 -69 -65 -130 -31 -62 -61 -115 -66 -119 -5 -3 -9 -13 -9 -22 0 -9 -6 -28 -14 -42 -23 -42 -64 -124 -75 -150 -6 -14 -15 -32 -19 -40 -5 -8 -13 -24 -19 -35 -5 -11 -15 -29 -20 -40 -6 -11 -16 -31 -22 -45 -6 -14 -15 -32 -20 -40 -5 -8 -37 -73 -71 -145 -34 -71 -66 -137 -70 -145 -5 -8 -50 -96 -100 -195 -50 -99 -94 -187 -99 -195 -4 -8 -14 -26 -21 -40 -8 -14 -20 -37 -28 -52 -7 -16 -14 -28 -15 -29 -1 0 -1424 -3 -3162 -6 -2860 -4 -3162 -6 -3177 -20 -17 -15 -18 -92 -18 -1350 l0 -1333 26 -10 c16 -7 1462 -10 4059 -10 l4033 0 42 47 c23 27 58 72 77 100 19 29 38 53 42 53 4 0 13 16 20 35 7 19 17 35 22 35 5 0 9 6 9 13 0 8 9 22 20 32 11 10 20 26 20 36 0 10 8 26 18 36 10 10 23 29 30 43 7 14 30 57 52 95 21 39 46 84 54 101 7 17 19 34 24 38 6 3 13 19 17 35 3 16 12 32 19 34 8 3 17 18 21 34 3 15 11 33 17 40 11 13 69 119 93 170 8 17 19 34 25 38 5 3 10 14 10 24 0 10 9 28 20 41 11 13 20 31 20 42 0 10 9 26 20 35 11 10 20 27 20 39 0 11 9 29 20 39 11 10 20 27 20 37 0 11 9 31 20 45 11 14 20 32 20 40 0 8 6 27 14 41 24 44 66 140 66 150 0 5 6 15 14 21 8 7 18 25 21 41 3 16 13 34 21 41 8 6 14 23 14 38 0 15 9 34 20 44 11 9 20 27 20 40 0 12 9 30 20 40 11 9 20 28 20 41 0 13 7 29 15 36 8 7 15 20 15 30 0 9 9 29 20 43 11 14 20 34 20 45 0 11 7 25 15 32 8 7 20 30 26 53 6 22 17 46 25 54 8 8 14 22 14 32 0 10 9 28 20 41 11 13 20 33 20 44 0 12 9 29 20 39 11 9 20 28 20 41 0 13 6 29 14 35 8 7 18 25 21 41 3 16 13 34 21 41 8 6 14 21 14 34 0 12 9 30 20 40 11 10 20 28 20 40 0 12 9 32 20 45 11 13 20 29 20 36 0 6 15 43 34 80 19 38 49 98 66 134 17 36 35 72 39 80 4 8 17 34 29 57 12 23 22 47 22 53 0 7 9 23 20 37 11 14 20 35 20 47 0 12 9 29 20 39 11 9 20 25 20 36 0 10 7 24 15 31 8 7 17 27 21 45 3 19 12 36 20 39 8 3 14 14 14 24 0 11 9 31 20 45 11 14 20 34 20 45 0 10 9 27 20 37 11 10 20 28 20 40 0 12 9 30 20 40 11 10 20 28 20 41 0 13 6 27 13 31 7 4 18 20 24 35 l13 28 4297 2 c4287 3 4298 3 4315 -17 10 -11 20 -29 23 -40 6 -20 69 -155 106 -227 10 -20 19 -43 19 -51 0 -8 7 -20 15 -27 8 -7 15 -23 15 -36 0 -13 9 -32 20 -41 11 -10 20 -26 20 -36 0 -15 19 -58 52 -117 4 -8 13 -26 19 -40 6 -14 15 -32 20 -40 5 -8 14 -26 20 -40 7 -14 29 -61 50 -105 22 -44 39 -85 39 -91 0 -6 7 -17 15 -24 8 -7 15 -20 15 -30 0 -9 9 -29 20 -43 11 -14 20 -32 20 -40 0 -8 8 -25 18 -38 11 -13 22 -36 26 -51 3 -16 10 -28 15 -28 5 0 13 -15 16 -33 4 -17 16 -40 26 -50 11 -10 19 -28 19 -41 0 -13 7 -26 15 -30 8 -3 15 -17 15 -31 0 -14 9 -34 20 -45 11 -11 20 -31 20 -45 0 -14 8 -29 20 -35 13 -7 20 -21 20 -40 0 -19 7 -33 20 -40 13 -7 20 -21 20 -41 0 -16 6 -32 14 -35 8 -3 17 -21 21 -40 3 -19 13 -38 21 -41 7 -3 14 -16 14 -29 0 -13 9 -32 20 -41 11 -10 20 -25 20 -34 0 -17 49 -120 61 -129 4 -3 11 -19 15 -35 4 -17 15 -41 26 -54 10 -13 18 -32 18 -41 0 -10 7 -23 15 -30 8 -7 15 -17 15 -22 0 -8 48 -111 69 -148 29 -50 91 -184 91 -195 0 -7 6 -18 14 -24 8 -7 17 -24 21 -38 3 -15 15 -38 26 -51 10 -14 19 -33 19 -42 0 -10 6 -23 14 -29 8 -7 18 -25 21 -41 3 -16 13 -34 21 -41 8 -6 14 -21 14 -34 0 -12 9 -30 20 -40 11 -10 20 -28 20 -40 0 -12 9 -30 20 -40 11 -10 20 -28 20 -40 0 -13 7 -28 15 -35 8 -7 15 -20 15 -30 0 -9 9 -29 20 -43 11 -14 20 -34 20 -45 0 -10 9 -27 20 -37 11 -10 20 -28 20 -40 0 -12 9 -30 20 -40 11 -10 20 -28 20 -40 0 -13 6 -28 14 -34 8 -7 18 -25 21 -41 3 -16 12 -34 20 -40 8 -6 17 -24 20 -40 3 -16 13 -34 21 -41 8 -6 14 -18 14 -26 0 -12 21 -57 52 -113 4 -8 13 -26 19 -40 6 -14 15 -32 20 -40 5 -8 14 -26 20 -40 7 -14 29 -61 50 -106 22 -44 39 -84 39 -88 0 -4 9 -19 20 -33 11 -14 20 -34 20 -43 0 -10 7 -23 15 -30 8 -7 15 -19 15 -28 0 -9 10 -31 23 -49 l22 -33 1533 0 c1483 0 1532 1 1532 18 0 11 -9 29 -20 42 -11 13 -20 33 -20 45 0 12 -9 30 -20 40 -11 10 -20 27 -20 37 0 11 -9 31 -20 45 -11 14 -20 34 -20 43 0 10 -7 23 -15 30 -8 7 -15 21 -15 31 0 11 -9 28 -20 39 -11 11 -20 29 -20 40 0 11 -9 28 -20 37 -11 10 -20 27 -20 39 0 12 -9 33 -21 48 -32 40 -22 60 32 66 26 3 53 11 60 17 8 6 47 16 88 22 40 5 79 15 84 20 6 6 29 11 52 11 22 0 58 9 80 20 22 11 55 20 75 20 19 0 49 8 65 18 17 11 52 21 79 24 27 3 52 11 56 18 4 6 27 14 51 17 24 3 51 11 59 18 8 8 33 17 55 20 22 4 48 14 57 22 9 8 35 17 57 20 22 3 46 12 52 19 6 8 21 14 33 14 12 0 38 9 59 20 20 11 43 20 51 20 7 0 25 9 39 20 14 11 36 20 50 20 13 0 32 9 42 20 10 11 28 20 41 20 12 0 29 7 38 15 8 8 21 15 29 15 8 0 26 9 40 20 14 11 35 20 46 20 12 0 29 9 38 20 10 11 25 20 34 20 9 0 28 9 42 20 14 11 32 20 40 20 8 0 26 9 40 20 14 11 32 20 40 20 8 0 20 7 27 16 8 8 27 22 44 29 50 23 134 72 162 94 15 12 31 21 36 21 9 0 62 35 86 57 7 7 18 13 24 13 5 0 29 16 52 35 24 19 48 35 53 35 6 0 33 18 61 40 27 22 54 40 59 40 10 0 33 17 84 64 14 13 52 40 84 61 31 21 59 44 62 52 3 7 17 13 32 13 19 0 30 -7 39 -28 22 -49 43 -82 52 -82 5 0 16 -14 24 -31 20 -40 88 -129 98 -129 4 0 8 -6 8 -14 0 -8 17 -36 38 -63 21 -26 49 -66 62 -88 13 -22 36 -52 51 -68 15 -15 42 -52 59 -83 18 -30 39 -58 46 -61 8 -3 14 -10 15 -17 0 -6 16 -31 34 -56 19 -25 55 -76 82 -115 26 -38 59 -81 72 -95 13 -14 30 -38 37 -55 7 -16 25 -44 41 -61 15 -16 41 -50 58 -75 34 -51 75 -97 163 -186 l62 -63 1453 -2 c798 -2 1460 1 1470 5 23 10 22 29 -3 50 -11 9 -20 23 -20 30 0 14 -25 50 -52 75 -10 9 -18 24 -18 34 0 10 -8 26 -18 36 -10 10 -22 25 -26 33 -10 20 -46 78 -78 127 -16 23 -28 46 -28 51 0 6 -8 16 -17 23 -10 7 -29 35 -43 61 -14 27 -33 55 -42 64 -10 9 -18 21 -18 28 0 11 -19 39 -57 82 -13 14 -23 33 -23 41 0 8 -7 22 -15 31 -8 9 -23 26 -35 39 -11 12 -20 29 -20 37 0 8 -8 23 -17 33 -24 25 -40 50 -58 90 -9 17 -19 32 -25 32 -8 0 -20 18 -52 80 -7 14 -16 27 -20 30 -9 7 -58 79 -58 87 0 3 -10 18 -22 33 -45 56 -58 74 -58 83 0 4 -14 25 -31 46 -16 21 -38 52 -47 68 -27 47 -74 119 -114 175 -21 28 -38 57 -38 64 0 7 -7 17 -16 22 -16 9 -36 40 -55 84 -6 16 -15 28 -19 28 -7 0 -47 58 -59 85 -2 5 -21 32 -43 58 -21 27 -38 54 -38 60 0 7 -15 29 -34 49 -19 21 -38 48 -42 60 -6 22 -20 40 -56 76 -10 9 -18 22 -18 30 0 7 -18 35 -40 63 -22 28 -40 56 -40 61 0 6 -15 29 -33 52 -19 23 -46 62 -61 89 -16 26 -33 50 -39 55 -7 4 -21 25 -32 47 -11 22 -27 46 -35 55 -8 8 -37 48 -63 87 -27 40 -55 77 -63 84 -8 6 -14 17 -14 24 0 6 -8 22 -17 34 -43 52 -79 102 -149 206 -15 22 -44 61 -65 86 -50 60 -49 85 1 151 22 29 40 58 40 65 0 7 6 16 13 20 16 11 57 69 57 83 0 5 9 19 20 30 11 11 31 42 45 69 15 27 33 52 41 55 8 3 14 14 14 25 0 11 6 26 13 33 27 30 56 77 63 102 3 14 10 26 15 26 5 0 15 12 22 27 6 16 27 50 45 78 17 27 32 55 32 62 0 7 9 22 20 33 11 11 20 28 20 38 0 10 9 25 20 35 11 9 20 27 20 40 0 12 9 30 20 40 11 9 20 26 20 36 0 11 4 23 10 26 12 7 60 103 60 119 0 7 9 23 20 36 11 13 20 31 20 40 0 10 9 29 20 43 11 14 20 34 20 45 0 11 7 25 15 32 8 7 17 27 21 45 3 19 12 36 20 39 8 3 14 14 14 24 0 10 9 35 20 57 11 22 20 47 20 56 0 9 9 28 20 42 11 14 20 35 20 47 0 12 9 33 20 47 11 14 20 37 20 50 0 14 9 36 20 50 11 14 20 33 20 42 0 9 9 34 20 56 11 22 20 49 20 61 0 12 6 27 14 33 7 6 16 30 19 52 3 22 12 48 21 58 9 10 16 31 16 48 0 17 9 42 20 56 11 14 20 37 20 51 0 14 9 43 20 63 11 21 20 50 20 65 0 16 9 45 20 65 11 21 20 53 20 72 0 19 7 42 15 51 9 10 18 41 21 71 4 30 12 63 19 74 6 11 15 43 18 72 3 29 13 65 21 82 9 16 16 51 16 76 0 26 9 63 20 85 13 25 20 59 20 95 0 33 7 69 17 88 9 19 18 65 21 112 2 44 11 93 19 108 9 18 17 73 20 140 3 62 11 130 18 152 39 115 39 1632 0 1780 -7 28 -15 108 -19 178 -3 70 -11 138 -18 150 -6 12 -15 70 -18 128 -5 74 -12 113 -23 130 -12 16 -17 44 -17 90 0 45 -6 81 -20 110 -11 25 -20 66 -20 95 0 30 -8 70 -20 95 -11 24 -20 63 -20 87 0 24 -6 55 -14 70 -7 15 -16 51 -19 81 -4 30 -13 61 -20 70 -8 9 -17 40 -20 70 -4 30 -13 61 -22 71 -8 9 -15 31 -15 48 0 18 -9 49 -20 69 -11 21 -20 51 -20 68 0 16 -9 44 -20 60 -11 17 -20 43 -20 59 0 16 -7 37 -15 46 -9 10 -19 35 -22 56 -3 22 -11 46 -18 54 -7 8 -16 34 -20 57 -3 23 -13 47 -21 54 -8 6 -14 24 -14 39 0 15 -8 37 -19 49 -10 11 -21 39 -25 60 -3 21 -13 44 -21 51 -8 7 -15 22 -15 34 0 11 -9 39 -19 61 -45 94 -61 133 -61 148 0 8 -7 17 -15 21 -8 3 -15 16 -15 29 0 14 -9 36 -20 50 -11 14 -20 33 -20 42 0 9 -9 28 -20 42 -11 14 -20 33 -20 43 0 10 -9 29 -20 43 -11 14 -20 29 -20 34 0 4 -30 68 -67 141 -91 179 -94 185 -110 200 -7 7 -13 21 -13 31 0 10 -9 26 -20 36 -11 10 -20 26 -20 35 0 10 -6 23 -14 29 -8 7 -27 36 -41 64 -15 29 -33 59 -41 68 -8 8 -14 19 -14 24 0 10 -47 82 -67 103 -7 7 -13 18 -13 23 0 5 -16 29 -35 55 -19 25 -35 51 -35 58 0 7 -11 22 -25 34 -14 12 -25 29 -25 37 0 8 -4 15 -9 15 -5 0 -14 13 -21 29 -6 16 -18 32 -26 35 -8 3 -14 12 -14 21 0 8 -5 15 -10 15 -6 0 -16 13 -23 29 -12 29 -66 99 -99 129 -10 9 -18 22 -18 29 0 7 -9 21 -20 30 -11 10 -20 21 -20 26 0 5 -14 22 -30 39 -17 17 -48 56 -69 87 -21 31 -67 86 -102 123 -35 37 -80 88 -98 114 -83 110 -478 507 -622 625 -53 42 -113 95 -135 116 -52 51 -129 113 -140 113 -5 0 -17 8 -25 18 -27 30 -82 76 -129 107 -25 16 -66 46 -91 67 -26 21 -50 38 -54 38 -4 0 -28 17 -54 38 -25 21 -53 42 -61 46 -25 11 -55 30 -70 44 -26 22 -91 62 -101 62 -5 0 -12 7 -15 15 -3 8 -15 17 -27 21 -11 4 -42 22 -69 40 -26 19 -54 34 -62 34 -7 0 -20 7 -27 17 -8 9 -27 22 -44 30 -58 28 -85 44 -85 52 0 5 -12 12 -27 16 -16 4 -36 15 -46 26 -10 10 -28 19 -40 19 -12 0 -30 9 -40 20 -9 11 -26 20 -36 20 -11 0 -23 5 -27 11 -3 6 -21 17 -38 25 -17 8 -38 18 -46 23 -8 5 -26 14 -40 20 -14 6 -32 15 -40 19 -52 29 -101 52 -110 52 -7 0 -23 9 -37 20 -14 11 -36 20 -48 20 -13 0 -25 6 -28 14 -3 7 -21 16 -40 20 -19 4 -40 13 -47 21 -7 8 -20 15 -29 15 -9 0 -33 9 -54 20 -20 11 -45 20 -55 20 -11 0 -29 9 -42 20 -13 11 -34 20 -47 20 -14 0 -36 9 -50 20 -14 11 -38 20 -53 20 -15 0 -33 6 -39 14 -7 8 -31 18 -54 21 -23 4 -49 13 -57 20 -8 7 -32 15 -54 18 -21 3 -46 13 -56 22 -9 8 -30 15 -46 15 -16 0 -46 9 -67 20 -20 11 -49 20 -64 20 -16 1 -46 9 -68 20 -22 11 -52 19 -68 20 -15 0 -44 9 -64 20 -21 11 -55 20 -76 20 -21 0 -48 7 -60 15 -12 8 -49 17 -82 21 -33 4 -71 12 -85 19 -14 7 -53 15 -88 19 -35 3 -73 13 -85 21 -14 9 -44 15 -84 15 -39 0 -81 8 -113 20 -34 13 -75 20 -123 20 -40 1 -90 8 -112 16 -23 9 -99 19 -175 24 -74 4 -151 13 -170 19 -44 15 -504 35 -785 36 -304 0 -749 -22 -809 -40 -29 -9 -88 -15 -142 -15 -64 0 -111 -6 -156 -20 -37 -12 -92 -20 -133 -20 -45 0 -81 -6 -100 -16 -16 -9 -59 -18 -95 -21 -36 -2 -86 -13 -112 -24 -26 -10 -65 -19 -88 -19 -22 0 -53 -6 -68 -14 -15 -7 -51 -16 -81 -19 -29 -4 -60 -12 -68 -19 -8 -6 -41 -15 -73 -19 -33 -4 -66 -14 -75 -23 -9 -9 -32 -16 -51 -16 -19 0 -51 -9 -71 -20 -21 -11 -48 -20 -60 -20 -13 0 -40 -9 -60 -20 -21 -11 -50 -20 -65 -20 -14 0 -34 -7 -42 -16 -9 -8 -33 -18 -53 -21 -21 -3 -45 -11 -53 -18 -8 -7 -34 -16 -57 -20 -23 -3 -47 -13 -54 -21 -6 -8 -22 -14 -34 -14 -12 0 -34 -9 -48 -20 -14 -11 -35 -20 -47 -20 -12 0 -33 -9 -47 -20 -14 -11 -36 -20 -48 -20 -12 0 -32 -9 -45 -20 -13 -11 -34 -20 -47 -20 -13 0 -26 -6 -29 -14 -3 -8 -21 -17 -40 -21 -19 -3 -37 -12 -40 -20 -3 -7 -20 -16 -39 -19 -18 -4 -36 -13 -39 -21 -3 -8 -16 -15 -29 -15 -13 0 -32 -9 -42 -20 -10 -11 -28 -20 -40 -20 -12 0 -30 -9 -40 -20 -10 -11 -26 -20 -35 -20 -10 0 -23 -7 -30 -15 -7 -8 -36 -26 -64 -39 -29 -14 -59 -32 -66 -41 -7 -8 -17 -15 -23 -15 -11 0 -82 -45 -105 -67 -7 -7 -18 -13 -24 -13 -5 0 -29 -16 -52 -35 -24 -19 -48 -35 -53 -35 -6 0 -33 -18 -61 -40 -27 -22 -54 -40 -59 -40 -5 0 -25 -14 -44 -31 -19 -17 -50 -41 -69 -54 -68 -44 -297 -231 -370 -302 -40 -40 -76 -73 -80 -73 -12 0 -50 -46 -50 -62 0 -8 9 -23 20 -33 11 -10 20 -28 20 -39 0 -12 9 -29 20 -39 11 -9 20 -25 20 -36 0 -10 7 -24 15 -31 8 -7 15 -18 15 -25 0 -7 9 -24 20 -38 11 -14 20 -32 20 -40 0 -7 9 -24 20 -37 11 -13 20 -29 20 -37 0 -7 7 -16 15 -19 8 -4 15 -14 15 -24 0 -9 9 -29 20 -43 11 -14 20 -32 20 -40 0 -8 8 -25 18 -38 10 -13 23 -35 30 -49 7 -14 30 -56 52 -95 22 -38 47 -84 55 -102 8 -17 19 -34 25 -38 5 -3 10 -15 10 -26 0 -10 9 -28 20 -39 11 -11 20 -28 20 -38 0 -11 9 -27 20 -37 11 -10 20 -26 20 -37 0 -10 9 -26 20 -35 11 -10 20 -25 20 -34 0 -9 9 -28 20 -42 11 -14 20 -29 20 -34 0 -5 16 -32 35 -62 19 -29 38 -64 41 -78 4 -13 13 -27 20 -30 8 -3 14 -13 14 -23 0 -9 9 -29 20 -43 11 -14 20 -32 20 -41 0 -9 9 -25 20 -36 11 -11 20 -26 20 -34 0 -8 6 -21 13 -28 14 -14 34 -49 60 -104 8 -17 20 -35 26 -38 6 -4 11 -16 11 -26 0 -11 8 -27 19 -37 10 -10 22 -29 26 -43 4 -14 12 -32 19 -40 6 -8 17 -25 24 -37 6 -13 18 -33 25 -45 6 -13 20 -34 30 -47 9 -13 17 -32 17 -43 0 -10 6 -21 14 -24 8 -3 18 -19 21 -36 4 -16 13 -32 21 -35 8 -3 14 -13 14 -22 0 -9 8 -28 17 -41 20 -28 37 -59 83 -147 17 -35 35 -63 40 -63 4 0 10 -13 13 -30 11 -53 77 -77 94 -33 7 19 383 395 424 425 40 29 143 112 154 123 6 6 30 24 55 41 53 34 65 43 91 67 10 9 22 17 27 17 4 0 33 18 65 40 31 22 61 40 66 40 4 0 16 9 26 20 10 11 26 20 36 20 10 0 21 5 25 11 3 6 21 17 38 25 33 15 55 28 98 56 15 10 34 18 41 18 8 0 26 9 40 20 14 11 33 20 44 20 10 0 29 9 43 20 14 11 32 20 40 20 8 0 29 9 45 20 17 11 40 20 51 20 12 0 27 7 34 15 6 7 31 17 55 21 25 3 49 12 55 20 7 7 31 16 55 20 25 3 50 12 56 20 6 8 26 14 43 14 17 0 46 9 64 20 18 11 47 20 65 20 17 1 50 9 72 20 22 11 59 19 83 20 23 0 60 9 82 20 26 14 59 20 100 20 34 0 74 6 89 15 16 8 73 17 127 21 55 4 124 13 154 20 79 20 921 20 1000 0 30 -7 98 -16 152 -20 53 -3 112 -13 132 -21 19 -8 63 -15 96 -15 41 0 74 -7 100 -20 23 -12 60 -20 87 -20 26 -1 66 -9 88 -20 22 -11 54 -19 71 -20 18 0 51 -9 75 -20 24 -11 58 -20 75 -20 17 0 37 -6 43 -14 7 -8 34 -17 61 -21 27 -4 54 -13 60 -20 7 -8 31 -17 55 -21 25 -3 50 -12 56 -20 6 -8 21 -14 33 -14 11 0 35 -9 51 -20 17 -11 42 -20 56 -20 14 0 34 -9 44 -20 10 -11 28 -20 40 -20 13 0 28 -6 34 -14 7 -8 25 -18 41 -21 16 -3 34 -13 41 -21 6 -8 21 -14 34 -14 12 0 30 -9 40 -20 10 -11 28 -20 40 -20 12 0 30 -9 40 -20 10 -11 26 -20 35 -20 9 0 25 -9 35 -20 10 -11 26 -20 35 -20 10 0 23 -7 30 -15 6 -8 21 -17 33 -21 11 -4 42 -22 69 -40 26 -19 52 -34 57 -34 5 0 32 -18 60 -40 28 -22 55 -40 60 -40 5 0 31 -17 58 -38 26 -21 65 -48 85 -60 20 -13 52 -37 70 -54 18 -17 51 -42 73 -57 22 -14 47 -32 56 -41 9 -8 60 -55 115 -105 125 -113 315 -303 419 -419 44 -49 87 -97 95 -105 9 -9 28 -34 43 -56 14 -22 39 -54 54 -71 36 -40 73 -91 73 -101 0 -4 18 -28 40 -52 22 -24 40 -49 40 -55 0 -7 18 -36 40 -66 22 -29 42 -61 45 -72 4 -10 11 -18 16 -18 5 0 9 -6 9 -13 0 -8 9 -22 20 -32 11 -10 20 -26 20 -35 0 -9 9 -25 20 -35 11 -10 20 -23 20 -29 0 -6 15 -35 34 -63 19 -29 37 -61 41 -72 3 -10 12 -25 20 -31 8 -7 15 -20 15 -30 0 -9 9 -29 20 -43 11 -14 20 -34 20 -45 0 -10 9 -27 20 -37 11 -10 20 -27 20 -37 0 -11 9 -31 20 -45 11 -14 20 -34 20 -44 0 -10 9 -33 20 -51 11 -18 20 -40 20 -49 0 -9 7 -22 15 -29 8 -7 15 -22 15 -34 0 -11 9 -34 20 -51 11 -16 20 -37 20 -45 0 -8 9 -32 20 -53 11 -20 20 -47 20 -59 0 -13 9 -36 20 -53 11 -16 20 -43 20 -60 0 -16 9 -43 20 -60 11 -16 20 -45 20 -63 0 -19 9 -45 20 -59 13 -16 20 -41 20 -67 0 -23 6 -50 14 -61 7 -11 16 -46 20 -78 3 -32 13 -72 21 -87 8 -16 15 -51 15 -77 0 -26 9 -68 20 -92 13 -28 20 -65 20 -106 0 -35 9 -90 20 -125 13 -39 20 -90 20 -137 0 -41 8 -106 18 -146 15 -63 17 -128 17 -527 0 -403 -2 -462 -17 -516 -11 -38 -18 -96 -18 -148 0 -61 -6 -103 -20 -143 -12 -34 -20 -83 -20 -121 0 -38 -6 -75 -16 -94 -9 -17 -19 -63 -24 -102 -4 -39 -15 -89 -24 -111 -8 -22 -15 -55 -16 -73 0 -18 -5 -43 -12 -55 -6 -12 -15 -46 -19 -75 -4 -30 -15 -62 -23 -71 -9 -10 -16 -33 -16 -52 0 -19 -9 -51 -20 -72 -11 -20 -20 -49 -20 -64 0 -16 -9 -41 -20 -58 -11 -16 -20 -42 -20 -57 0 -15 -7 -33 -15 -42 -8 -8 -18 -30 -22 -48 -3 -18 -15 -46 -25 -63 -10 -16 -18 -40 -18 -51 0 -12 -6 -27 -14 -33 -7 -6 -16 -29 -19 -52 -5 -42 -22 -69 -41 -69 -6 0 -26 25 -45 56 -19 31 -47 69 -63 86 -15 17 -28 34 -28 39 0 4 -6 12 -14 16 -7 4 -20 22 -29 38 -8 17 -34 50 -56 75 -23 25 -53 65 -68 90 -14 24 -44 62 -65 84 -21 22 -38 44 -38 49 0 12 -78 110 -96 120 -8 4 -14 14 -14 22 0 12 -69 108 -94 130 -6 6 -26 32 -43 58 -17 27 -52 72 -77 100 -25 29 -57 71 -73 94 -15 23 -43 59 -61 80 -18 21 -53 65 -78 98 l-45 60 -1477 5 c-834 3 -1482 1 -1489 -4 -24 -16 -13 -47 42 -115 30 -38 55 -73 55 -78 0 -5 18 -29 40 -54 22 -24 40 -49 40 -54 0 -11 20 -41 50 -74 26 -30 60 -80 60 -89 0 -5 16 -26 36 -48 19 -21 41 -52 48 -69 8 -16 28 -45 45 -64 17 -19 31 -38 31 -43 0 -11 36 -62 69 -97 13 -14 30 -39 37 -56 7 -16 29 -48 48 -69 20 -22 36 -44 36 -49 0 -6 15 -28 33 -51 19 -23 46 -63 62 -89 15 -27 34 -51 41 -54 8 -3 14 -9 14 -14 0 -11 82 -133 93 -137 4 -2 13 -18 21 -35 7 -18 26 -46 42 -63 16 -17 35 -42 42 -55 36 -66 44 -79 52 -79 4 0 18 -19 30 -42 12 -24 39 -63 59 -88 20 -25 42 -57 49 -72 6 -16 16 -28 22 -28 5 0 10 -7 10 -15 0 -9 7 -18 15 -21 8 -3 17 -16 21 -27 4 -12 23 -42 44 -67 20 -25 39 -49 41 -55 11 -27 52 -85 60 -85 5 0 9 -4 9 -10 0 -11 40 -72 78 -118 15 -19 31 -43 35 -55 4 -12 14 -28 22 -37 41 -44 51 -57 63 -80 28 -55 41 -74 56 -82 9 -5 16 -13 16 -18 0 -10 47 -82 59 -90 4 -3 21 -27 36 -55 16 -27 32 -52 36 -55 11 -8 59 -80 59 -88 0 -4 16 -24 35 -45 19 -21 35 -41 35 -45 0 -8 51 -83 73 -104 9 -10 17 -22 17 -27 0 -6 23 -39 50 -75 28 -36 50 -70 50 -75 0 -9 24 -40 63 -82 9 -10 17 -24 17 -30 0 -6 16 -30 36 -54 38 -47 74 -111 74 -132 0 -7 -12 -20 -27 -30 -16 -9 -41 -30 -58 -46 -16 -16 -45 -35 -62 -42 -18 -8 -33 -19 -33 -24 0 -6 -7 -11 -15 -11 -9 0 -18 -7 -21 -15 -3 -8 -15 -17 -25 -20 -27 -9 -99 -57 -99 -66 0 -4 -13 -10 -30 -14 -16 -4 -33 -12 -37 -19 -8 -13 -37 -30 -99 -59 -17 -8 -35 -20 -38 -26 -4 -6 -15 -11 -25 -11 -10 0 -26 -9 -36 -20 -10 -11 -27 -20 -37 -20 -11 0 -31 -9 -45 -20 -14 -11 -33 -20 -41 -20 -9 0 -23 -6 -31 -13 -9 -8 -35 -19 -58 -26 -24 -6 -43 -16 -43 -21 0 -6 -13 -10 -30 -10 -17 0 -39 -9 -50 -20 -11 -11 -30 -20 -42 -20 -13 0 -38 -9 -56 -20 -18 -11 -41 -20 -52 -20 -11 0 -37 -9 -57 -20 -21 -11 -48 -20 -60 -20 -13 0 -40 -9 -60 -20 -21 -11 -56 -20 -79 -20 -23 0 -47 -6 -53 -14 -6 -7 -39 -17 -73 -20 -34 -4 -74 -14 -89 -22 -16 -8 -52 -14 -81 -14 -29 -1 -71 -8 -93 -17 -24 -9 -92 -19 -170 -23 -71 -5 -158 -16 -192 -25 -38 -10 -90 -15 -135 -13 -71 3 -73 4 -76 29 -2 15 -12 35 -23 45 -10 9 -19 27 -19 39 0 13 -7 28 -15 35 -8 7 -15 21 -15 31 0 11 -9 28 -20 39 -11 11 -20 31 -20 45 0 14 -9 30 -20 37 -11 7 -20 22 -20 34 0 12 -9 33 -20 47 -11 14 -20 35 -20 46 0 12 -6 24 -14 27 -8 3 -17 20 -20 39 -4 18 -13 38 -21 45 -7 6 -17 24 -20 40 -3 16 -13 34 -21 41 -8 6 -14 18 -14 26 0 8 -9 31 -19 51 -11 20 -24 48 -30 62 -6 14 -15 32 -20 40 -26 46 -91 184 -91 195 0 7 -6 18 -14 24 -8 7 -17 27 -20 45 -4 19 -13 37 -21 40 -8 3 -17 21 -20 40 -4 19 -13 37 -21 40 -8 3 -14 16 -14 29 0 13 -9 32 -20 42 -11 10 -20 30 -20 44 0 15 -8 31 -20 39 -12 7 -20 23 -20 41 0 16 -6 31 -14 34 -8 3 -17 19 -21 36 -3 16 -13 35 -21 42 -8 6 -14 21 -14 34 0 12 -9 32 -20 45 -11 13 -20 31 -20 42 0 10 -9 26 -20 35 -11 10 -20 27 -20 39 0 12 -7 27 -15 34 -8 7 -15 18 -15 24 0 9 -70 160 -101 216 -4 8 -28 58 -54 110 -25 52 -50 102 -55 110 -6 8 -15 26 -22 40 -6 14 -29 61 -50 105 -21 43 -38 84 -38 91 0 6 -7 17 -15 24 -8 7 -15 20 -15 30 0 9 -9 29 -20 43 -11 14 -20 32 -20 40 0 8 -9 26 -20 40 -11 14 -20 32 -20 40 0 7 -9 24 -20 37 -11 13 -20 30 -20 37 0 8 -9 26 -20 40 -11 14 -20 34 -20 43 0 10 -6 23 -14 29 -8 7 -18 25 -21 41 -3 16 -13 34 -21 41 -8 6 -14 19 -14 29 0 9 -9 29 -20 43 -11 14 -20 32 -20 40 0 7 -9 24 -20 37 -11 13 -20 31 -20 40 0 9 -9 27 -20 40 -11 13 -20 34 -20 47 0 13 -6 26 -14 29 -8 3 -17 20 -20 39 -4 18 -13 36 -21 39 -8 3 -15 17 -15 31 0 14 -9 33 -20 42 -11 10 -20 27 -20 39 0 11 -9 29 -20 39 -11 10 -20 28 -20 40 0 12 -9 30 -20 40 -11 10 -20 28 -20 40 0 12 -9 30 -20 40 -11 10 -20 28 -20 40 0 13 -7 28 -15 35 -8 7 -15 20 -15 30 0 9 -9 29 -20 43 -11 14 -20 34 -20 45 0 10 -9 27 -20 37 -11 10 -20 27 -20 37 0 11 -9 31 -20 45 -11 14 -20 34 -20 43 0 10 -7 23 -15 30 -8 7 -15 20 -15 30 0 9 -9 29 -20 43 -11 14 -20 29 -20 33 0 8 -75 167 -91 194 -5 8 -14 25 -19 38 -6 12 -14 32 -20 45 -5 12 -14 29 -18 37 -31 56 -52 101 -52 113 0 8 -6 20 -14 26 -8 7 -18 25 -21 41 -3 16 -13 34 -21 41 -8 6 -14 19 -14 29 0 9 -9 29 -20 43 -11 14 -20 34 -20 45 0 10 -9 27 -20 37 -11 10 -20 28 -20 40 0 12 -9 30 -20 40 -11 10 -20 27 -20 37 0 11 -9 31 -20 45 -11 14 -20 34 -20 43 0 10 -7 23 -15 30 -8 7 -15 20 -15 30 0 9 -9 29 -20 43 -11 14 -20 34 -20 44 0 10 -9 26 -20 36 -11 9 -20 25 -20 34 0 10 -9 32 -20 48 -11 17 -20 38 -20 48 0 10 -7 20 -15 23 -8 4 -15 16 -15 29 0 12 -9 33 -19 47 -11 13 -23 36 -26 51 -4 14 -13 31 -21 38 -8 6 -14 18 -14 26 0 8 -9 32 -20 54 -11 21 -29 57 -40 78 -11 22 -20 45 -20 51 0 7 -9 23 -20 37 -11 14 -20 32 -20 40 0 8 -9 26 -20 40 -11 14 -20 34 -20 43 0 10 -7 23 -15 30 -8 7 -15 23 -15 36 0 13 -9 32 -20 41 -11 10 -20 27 -20 39 0 11 -9 31 -20 44 -11 13 -20 34 -20 47 0 13 -7 26 -15 29 -8 3 -17 22 -21 41 -4 19 -13 37 -20 40 -8 3 -14 15 -14 28 0 12 -9 34 -20 48 -11 14 -20 28 -20 32 0 4 -18 44 -39 89 -21 44 -42 91 -45 103 -4 11 -13 27 -21 33 -8 7 -15 22 -15 35 0 12 -9 32 -20 45 -11 13 -20 34 -20 47 0 13 -6 26 -14 29 -8 3 -17 21 -21 40 -3 19 -13 38 -21 41 -7 3 -14 15 -14 28 0 12 -9 34 -20 48 -11 14 -20 33 -20 42 0 9 -9 28 -20 42 -11 14 -20 34 -20 43 0 10 -6 23 -14 29 -8 7 -18 27 -22 44 -3 18 -15 43 -25 56 -11 13 -19 32 -19 41 0 10 -7 23 -15 30 -8 7 -15 18 -15 24 0 6 -9 28 -20 49 -11 20 -20 43 -20 51 0 7 -9 25 -20 39 -11 14 -20 34 -20 45 0 10 -9 27 -20 37 -11 10 -20 28 -20 40 0 12 -9 30 -20 40 -11 10 -20 28 -20 40 0 13 -7 28 -15 35 -8 7 -15 20 -15 30 0 9 -8 28 -19 41 -10 13 -22 38 -25 56 -4 17 -14 37 -22 44 -8 6 -14 19 -14 28 0 9 -9 30 -20 46 -11 17 -20 36 -20 43 0 8 -9 25 -20 39 -11 14 -20 33 -20 43 0 10 -9 29 -20 43 -11 14 -20 33 -20 42 0 9 -9 28 -20 42 -11 14 -20 34 -20 43 0 10 -7 23 -15 30 -8 7 -15 22 -15 35 0 12 -9 30 -20 40 -11 10 -20 28 -20 40 0 12 -9 30 -20 40 -11 10 -20 28 -20 40 0 13 -6 28 -14 34 -8 7 -18 25 -21 41 -3 16 -13 34 -20 40 -8 7 -17 28 -21 47 -4 19 -13 37 -20 40 -8 3 -14 13 -14 22 0 9 -12 39 -25 66 -14 28 -25 55 -25 61 0 6 -7 17 -15 24 -8 7 -15 20 -15 30 0 9 -9 29 -20 43 -11 14 -20 32 -20 40 0 8 -9 26 -20 40 -11 14 -20 34 -20 45 0 11 -6 25 -14 31 -8 7 -18 25 -21 41 -3 16 -12 34 -20 40 -8 6 -17 24 -20 40 -3 16 -13 34 -21 41 -8 6 -14 22 -14 35 0 13 -9 32 -20 41 -11 10 -20 27 -20 39 0 11 -9 31 -20 44 -11 13 -20 34 -20 47 0 13 -6 26 -14 29 -8 3 -17 18 -21 33 -3 15 -21 58 -40 96 -19 38 -35 74 -35 81 0 6 -9 23 -20 37 -11 14 -20 35 -20 46 0 12 -9 29 -20 38 -11 10 -20 26 -20 36 0 10 -9 30 -20 44 -11 14 -20 36 -20 50 0 13 -7 26 -15 29 -8 4 -15 17 -15 30 0 13 -9 33 -20 44 -11 11 -20 28 -20 39 0 10 -9 30 -20 44 -11 14 -20 34 -20 45 0 11 -7 25 -15 32 -8 7 -15 18 -15 25 0 6 -11 33 -25 59 -14 26 -25 53 -25 60 0 7 -9 23 -20 36 -11 13 -20 31 -20 41 0 10 -6 24 -14 31 -7 8 -17 29 -21 47 -4 18 -13 35 -21 38 -8 3 -14 18 -14 34 0 18 -8 34 -20 41 -12 8 -20 24 -20 39 0 14 -9 34 -20 44 -11 10 -20 28 -20 40 0 13 -6 28 -13 34 -8 6 -19 29 -26 51 -6 22 -16 40 -21 40 -4 0 -12 15 -15 33 -4 17 -13 39 -20 47 -7 8 -16 29 -20 47 -3 17 -13 37 -21 44 -8 6 -14 19 -14 29 0 9 -9 29 -20 43 -11 14 -20 34 -20 45 0 10 -9 27 -20 37 -11 10 -20 27 -20 37 0 11 -9 31 -20 45 -11 14 -20 34 -20 43 0 10 -7 23 -15 30 -8 7 -15 23 -15 36 0 13 -9 32 -20 41 -11 10 -20 25 -20 34 0 15 -30 80 -101 220 -11 20 -19 42 -19 49 0 6 -9 23 -20 37 -11 14 -20 34 -20 43 0 10 -6 23 -14 29 -8 7 -17 27 -20 45 -4 19 -13 37 -21 40 -8 3 -15 17 -15 31 0 14 -9 33 -20 42 -11 10 -20 28 -20 41 0 13 -9 35 -20 49 -11 14 -20 34 -20 43 0 10 -7 23 -15 30 -8 7 -15 20 -15 30 0 9 -9 29 -20 43 -11 14 -20 28 -20 32 0 8 -42 101 -86 189 -19 37 -34 74 -34 80 0 7 -9 23 -20 36 -11 13 -20 33 -20 45 0 13 -6 28 -14 34 -8 7 -18 26 -21 42 -4 17 -13 33 -21 36 -8 3 -14 16 -14 29 0 13 -9 33 -20 44 -11 11 -20 31 -20 45 0 14 -9 30 -20 37 -12 8 -20 24 -20 39 0 15 -6 32 -14 38 -8 7 -18 25 -21 41 -3 16 -13 34 -21 41 -8 6 -14 16 -14 21 0 5 -11 33 -24 61 -13 29 -26 59 -30 67 -3 8 -10 22 -14 30 -31 56 -52 101 -52 113 0 8 -9 22 -20 32 -11 10 -20 25 -20 34 0 9 -9 30 -20 46 -11 17 -20 36 -20 43 0 8 -9 25 -20 39 -11 14 -20 36 -20 50 0 13 -7 26 -15 29 -8 4 -15 16 -15 29 0 12 -9 34 -20 48 -11 14 -20 32 -20 40 0 8 -9 26 -20 40 -11 14 -20 34 -20 45 0 11 -6 25 -14 31 -8 7 -18 25 -21 41 -3 16 -13 34 -21 41 -8 6 -14 17 -14 23 0 6 -12 34 -25 61 -14 28 -25 55 -25 62 0 6 -10 19 -22 27 -20 14 -152 16 -1219 16 l-1197 0 -26 -34z m1269 -4227 c4 -15 12 -33 20 -39 8 -6 17 -24 20 -40 3 -16 13 -34 21 -41 8 -6 14 -19 14 -29 0 -9 9 -29 20 -43 11 -14 20 -34 20 -45 0 -10 9 -27 20 -37 11 -10 20 -28 20 -40 0 -13 6 -28 14 -34 8 -7 18 -25 21 -41 3 -16 12 -34 20 -40 8 -6 17 -24 20 -40 3 -16 13 -34 21 -41 8 -6 14 -17 14 -25 0 -7 27 -66 60 -131 33 -64 60 -122 60 -129 0 -6 9 -21 20 -34 11 -13 20 -30 20 -39 0 -9 9 -29 20 -46 11 -16 20 -37 20 -46 0 -9 6 -22 14 -28 8 -7 18 -25 21 -41 3 -16 13 -31 21 -34 8 -3 14 -16 14 -29 0 -14 9 -36 20 -50 11 -14 20 -34 20 -45 0 -10 9 -27 20 -37 11 -10 20 -28 20 -40 0 -13 6 -28 14 -34 8 -7 18 -26 21 -42 4 -17 13 -33 20 -35 7 -3 16 -21 20 -40 3 -19 13 -38 21 -41 7 -3 14 -16 14 -29 0 -13 9 -32 20 -41 11 -10 20 -26 20 -36 0 -10 9 -30 20 -44 11 -14 20 -36 20 -50 0 -13 6 -26 14 -29 8 -3 18 -18 21 -34 3 -16 13 -34 21 -41 8 -6 14 -18 14 -26 0 -8 9 -31 19 -51 11 -20 24 -48 30 -62 6 -14 15 -32 20 -40 5 -8 28 -55 51 -105 41 -86 77 -162 105 -215 26 -49 55 -117 55 -128 0 -5 7 -12 15 -16 9 -3 15 -18 15 -36 0 -19 7 -34 20 -42 11 -7 20 -23 20 -36 0 -13 9 -35 20 -49 11 -14 20 -34 20 -43 0 -10 7 -23 15 -30 8 -7 15 -20 15 -30 0 -9 9 -29 20 -43 11 -14 20 -34 20 -45 0 -10 9 -27 20 -37 11 -10 20 -26 20 -36 0 -10 18 -52 40 -94 22 -42 40 -82 40 -89 0 -7 9 -23 20 -36 11 -13 20 -29 20 -36 0 -14 46 -103 61 -119 5 -5 9 -16 9 -26 0 -9 9 -28 20 -42 11 -14 20 -35 20 -46 0 -12
9 -29 20 -38 11 -10 20 -26 20 -36 0 -10 9 -30 20 -44 11 -14 20 -34 20 -43 0
-10 6 -23 14 -29 8 -7 18 -25 21 -41 3 -16 12 -34 20 -40 8 -6 17 -24 20 -40
3 -16 13 -34 21 -41 8 -6 14 -21 14 -34 0 -12 9 -30 20 -40 11 -10 20 -28 20
-40 0 -12 9 -32 20 -45 11 -13 20 -31 20 -40 0 -10 7 -23 15 -30 8 -7 15 -17
15 -23 0 -6 9 -29 19 -51 11 -23 25 -52 30 -66 6 -14 15 -32 20 -40 25 -43 91
-183 91 -193 0 -7 9 -23 20 -37 11 -14 20 -32 20 -41 0 -9 9 -26 20 -39 11
-13 20 -32 20 -42 0 -11 9 -31 20 -45 11 -14 20 -34 20 -43 0 -10 7 -23 15
-30 8 -7 15 -21 15 -31 0 -11 9 -28 20 -39 11 -11 20 -31 20 -45 0 -14 9 -30
20 -37 11 -7 20 -24 20 -38 0 -14 9 -33 20 -43 11 -9 20 -28 20 -42 0 -14 7
-28 15 -31 8 -4 15 -17 15 -30 0 -13 9 -33 20 -44 11 -11 20 -28 20 -39 0 -10
9 -30 20 -44 11 -14 20 -30 20 -37 0 -9 22 -57 52 -110 4 -8 13 -26 18 -40 6
-14 14 -32 19 -40 6 -8 22 -40 36 -70 15 -30 63 -127 106 -215 44 -88 79 -165
79 -171 0 -6 6 -17 14 -23 8 -7 18 -25 21 -41 3 -16 12 -34 20 -40 8 -6 17
-24 20 -40 3 -16 13 -34 21 -41 8 -6 14 -19 14 -29 0 -9 9 -29 20 -43 11 -14
20 -34 20 -45 0 -11 7 -26 16 -33 25 -20 37 -61 22 -70 -16 -11 -5875 -11
-5913 -1 -24 7 -26 9 -11 21 9 7 16 21 16 31 0 9 9 29 20 43 11 14 20 33 20
44 0 10 9 32 20 48 11 17 20 37 20 46 0 9 6 22 14 28 8 7 18 27 22 44 3 18 15
43 25 56 11 13 19 34 19 46 0 12 7 28 15 35 8 7 15 22 15 35 0 12 9 32 20 45
11 13 20 31 20 40 0 9 9 27 20 40 11 13 20 29 20 37 0 8 9 32 20 54 11 21 29
57 40 78 11 22 20 45 20 51 0 7 9 23 20 37 11 14 20 36 20 48 0 12 7 28 15 35
8 7 15 20 15 30 0 9 9 29 20 43 11 14 20 33 20 42 0 9 9 28 20 42 11 14 20 36
20 49 0 12 5 26 10 29 6 4 24 36 41 73 17 37 39 85 50 108 10 22 19 47 19 56
0 9 6 18 14 21 7 3 16 19 19 37 4 17 14 38 22 46 8 9 15 26 15 38 0 13 9 31
20 41 11 10 20 28 20 40 0 13 7 28 15 35 8 7 15 20 15 30 0 9 9 29 20 43 11
14 20 30 20 36 0 6 11 33 23 59 13 26 40 80 60 121 21 40 37 81 37 90 0 10 9
26 20 36 11 10 20 28 20 40 0 13 7 28 15 35 8 7 17 27 21 45 3 19 12 36 20 39
8 3 14 16 14 29 0 13 9 34 20 47 11 13 20 29 20 36 0 7 15 42 34 78 19 36 40
81 46 101 6 19 15 35 20 35 5 0 12 15 16 33 3 17 15 43 25 56 11 13 19 32 19
41 0 10 6 23 14 29 8 7 18 25 21 41 3 16 13 34 21 41 8 6 14 24 14 40 0 18 7
32 20 39 13 7 20 21 20 38 0 15 9 35 20 45 11 9 20 28 20 42 0 14 6 28 14 31
8 3 17 20 20 39 4 18 13 36 21 39 8 3 15 13 15 23 0 10 9 32 20 48 11 17 20
38 20 47 0 9 7 23 15 31 7 8 17 26 20 40 4 15 13 31 21 38 7 6 16 26 20 45 3
19 10 37 15 40 8 5 41 70 68 134 6 14 15 32 20 40 5 8 14 26 20 40 6 14 15 32
20 40 23 40 91 183 91 192 0 5 9 21 20 35 11 14 20 32 20 40 0 8 9 26 20 40
11 14 20 34 20 43 0 10 7 23 15 30 8 7 15 20 15 30 0 9 9 29 20 43 11 14 20
34 20 45 0 10 9 27 20 37 11 10 20 28 20 40 0 12 9 30 20 40 11 10 20 27 20
37 0 11 9 31 20 45 11 14 20 34 20 45 0 10 7 21 15 24 8 3 17 21 21 39 3 19
12 36 20 39 8 3 14 17 14 31 0 14 9 33 20 42 11 10 20 27 20 39 0 11 9 29 20
39 11 10 20 30 20 44 0 15 8 31 20 39 11 7 20 23 20 36 0 13 6 29 14 35 8 7
18 25 21 41 3 16 13 34 21 41 8 6 14 21 14 34 0 12 9 30 20 40 11 10 20 28 20
39 0 12 9 29 20 39 11 9 20 27 20 40 0 13 9 32 20 42 11 10 20 28 20 40 0 13
6 25 14 28 7 3 16 21 20 40 4 19 13 38 21 41 8 3 15 14 15 24 0 11 9 31 20 45
11 14 20 34 20 45 0 11 7 25 15 32 8 7 20 30 25 51 6 22 15 39 20 39 4 0 11
13 15 29 3 16 13 35 21 42 8 6 14 17 14 23 0 7 17 48 38 91 21 44 44 91 50 105 7 14 16 32 20 40 31 56 52 101 52 113 0 8 9 26 20 40 11 14 20 33 20 42 0 9 9 28 20 42 11 14 20 35 20 46 0 20 1 20 24 -3 14 -12 28 -35 31 -51z"/>
</g>
</svg>
